<svg version="1.1" viewBox="0.0 0.0 960.0 540.0" fill="none" stroke="none" stroke-linecap="square" stroke-miterlimit="10" xmlns:xlink="http://www.w3.org/1999/xlink" xmlns="http://www.w3.org/2000/svg"><clipPath id="g12467a5dda1_0_0.0"><path d="m0 0l960.0 0l0 540.0l-960.0 0l0 -540.0z" clip-rule="nonzero"/></clipPath><g clip-path="url(#g12467a5dda1_0_0.0)"><path fill="#000000" fill-opacity="0.0" d="m0 0l960.0 0l0 540.0l-960.0 0z" fill-rule="evenodd"/><path fill="#ffffff" d="m-209.48868 1246.7826l1146.8346 0l0 1069.0394l-1146.8346 0z" fill-rule="evenodd"/><path stroke="#595959" stroke-width="1.0" stroke-linejoin="round" stroke-linecap="butt" d="m-209.48868 1246.7826l1146.8346 0l0 1069.0394l-1146.8346 0z" fill-rule="evenodd"/><path fill="#000000" fill-opacity="0.0" d="m400.6445 -468.15115l0 0c-26.333649 -104.18033 24.061127 -212.54074 120.69919 -259.5311c96.63806 -46.990356 212.98834 -19.7099 278.66748 65.338684l-179.49463 138.61536z" fill-rule="evenodd"/><path fill="#000000" fill-opacity="0.0" d="m400.6445 -468.15115l0 0c-26.333649 -104.18033 24.061127 -212.54074 120.69919 -259.5311c96.63806 -46.990356 212.98834 -19.7099 278.66748 65.338684" fill-rule="evenodd"/><path stroke="#20124d" stroke-width="24.0" stroke-linejoin="round" stroke-linecap="butt" d="m400.6445 -468.15115l0 0c-26.333649 -104.18033 24.061127 -212.54074 120.69919 -259.5311c96.63806 -46.990356 212.98834 -19.7099 278.66748 65.338684" fill-rule="evenodd"/><path fill="#000000" fill-opacity="0.0" d="m807.53015 -395.43448l0 0c-35.047302 51.08853 -89.469604 85.61484 -150.62122 95.556244c-61.15161 9.941406 -123.70825 -5.5676575 -173.13388 -42.923462l136.74283 -180.92517z" fill-rule="evenodd"/><path fill="#000000" fill-opacity="0.0" d="m807.53015 -395.43448l0 0c-35.047302 51.08853 -89.469604 85.61484 -150.62122 95.556244c-61.15161 9.941406 -123.70825 -5.5676575 -173.13388 -42.923462" fill-rule="evenodd"/><path stroke="#20124d" stroke-width="24.0" stroke-linejoin="round" stroke-linecap="butt" d="m807.53015 -395.43448l0 0c-35.047302 51.08853 -89.469604 85.61484 -150.62122 95.556244c-61.15161 9.941406 -123.70825 -5.5676575 -173.13388 -42.923462" fill-rule="evenodd"/><path fill="#20124d" d="m599.1836 -807.0703l42.669434 0l0 56.554565l-42.669434 0z" fill-rule="evenodd"/><path fill="#20124d" d="m584.9631 -829.84247l71.11005 0l0 0c9.315613 0 16.867432 10.018799 16.867432 22.377625c0 12.358765 -7.551819 22.377563 -16.867432 22.377563l-71.11005 0l0 0c-9.315613 0 -16.867432 -10.018799 -16.867432 -22.377563c0 -12.358826 7.551819 -22.377625 16.867432 -22.377625z" fill-rule="evenodd"/><path fill="#000000" fill-opacity="0.0" d="m795.1182 -434.29922l0 0c-42.63788 81.71896 -137.17603 122.73004 -226.70258 98.344604c-89.52652 -24.385406 -149.61908 -107.51517 -144.10199 -199.34518c5.5171204 -91.829956 75.138824 -167.30951 166.95294 -180.99994c91.81409 -13.69043 180.77423 38.142944 213.32635 124.29639l-184.07538 68.27515z" fill-rule="evenodd"/><path fill="#000000" fill-opacity="0.0" d="m795.1182 -434.29922l0 0c-42.63788 81.71896 -137.17603 122.73004 -226.70258 98.344604c-89.52652 -24.385406 -149.61908 -107.51517 -144.10199 -199.34518c5.5171204 -91.829956 75.138824 -167.30951 166.95294 -180.99994c91.81409 -13.69043 180.77423 38.142944 213.32635 124.29639" fill-rule="evenodd"/><path stroke="#9900ff" stroke-width="16.0" stroke-linejoin="round" stroke-linecap="butt" d="m795.1182 -434.29922l0 0c-42.63788 81.71896 -137.17603 122.73004 -226.70258 98.344604c-89.52652 -24.385406 -149.61908 -107.51517 -144.10199 -199.34518c5.5171204 -91.829956 75.138824 -167.30951 166.95294 -180.99994c91.81409 -13.69043 180.77423 38.142944 213.32635 124.29639" fill-rule="evenodd"/><path fill="#000000" fill-opacity="0.0" d="m-535.39197 -529.414l0 0c33.526794 -60.641113 95.206635 -100.26929 164.10245 -105.43292c68.89584 -5.1636353 135.75365 24.830872 177.8787 79.802l-162.60464 125.57202z" fill-rule="evenodd"/><path fill="#000000" fill-opacity="0.0" d="m-535.39197 -529.414l0 0c33.526794 -60.641113 95.206635 -100.26929 164.10245 -105.43292c68.89584 -5.1636353 135.75365 24.830872 177.8787 79.802" fill-rule="evenodd"/><path stroke="#20124d" stroke-width="24.0" stroke-linejoin="round" stroke-linecap="butt" d="m-535.39197 -529.414l0 0c33.526794 -60.641113 95.206635 -100.26929 164.10245 -105.43292c68.89584 -5.1636353 135.75365 24.830872 177.8787 79.802" fill-rule="evenodd"/><path fill="#000000" fill-opacity="0.0" d="m-186.63435 -313.27527c-51.95172 76.31734 -148.19154 108.53769 -235.37584 78.80197c-87.184296 -29.735718 -143.95258 -114.14212 -138.83942 -206.43457l204.83533 11.436157z" fill-rule="evenodd"/><path fill="#000000" fill-opacity="0.0" d="m-186.63435 -313.27527c-51.95172 76.31734 -148.19154 108.53769 -235.37584 78.80197c-87.184296 -29.735718 -143.95258 -114.14212 -138.83942 -206.43457" fill-rule="evenodd"/><path stroke="#20124d" stroke-width="24.0" stroke-linejoin="round" stroke-linecap="butt" d="m-186.63435 -313.27527c-51.95172 76.31734 -148.19154 108.53769 -235.37584 78.80197c-87.184296 -29.735718 -143.95258 -114.14212 -138.83942 -206.43457" fill-rule="evenodd"/><path fill="#20124d" d="m-375.31326 -686.7759l38.598755 0l0 51.357178l-38.598755 0z" fill-rule="evenodd"/><path fill="#20124d" d="m-388.1772 -707.45526l64.32617 0l0 0c8.42691 0 15.25824 9.0980835 15.25824 20.321106c0 11.223022 -6.8313293 20.321106 -15.25824 20.321106l-64.32617 0l0 0c-8.42691 0 -15.25827 -9.0980835 -15.25827 -20.321106c0 -11.223022 6.83136 -20.321106 15.25827 -20.321106z" fill-rule="evenodd"/><path fill="#000000" fill-opacity="0.0" d="m-204.87222 -395.14926l0 0c-15.981934 68.78763 -77.39801 117.90164 -148.77878 118.977325c-71.38077 1.0756531 -134.28238 -46.164917 -152.37744 -114.43906c-18.095093 -68.27411 13.291901 -139.94064 76.03412 -173.61026c62.742218 -33.669556 140.6279 -20.642395 188.67596 31.557922l-114.69614 103.19046z" fill-rule="evenodd"/><path fill="#000000" fill-opacity="0.0" d="m-204.87222 -395.14926l0 0c-15.981934 68.78763 -77.39801 117.90164 -148.77878 118.977325c-71.38077 1.0756531 -134.28238 -46.164917 -152.37744 -114.43906c-18.095093 -68.27411 13.291901 -139.94064 76.03412 -173.61026c62.742218 -33.669556 140.6279 -20.642395 188.67596 31.557922" fill-rule="evenodd"/><path stroke="#9900ff" stroke-width="21.0" stroke-linejoin="round" stroke-linecap="butt" d="m-204.87222 -395.14926l0 0c-15.981934 68.78763 -77.39801 117.90164 -148.77878 118.977325c-71.38077 1.0756531 -134.28238 -46.164917 -152.37744 -114.43906c-18.095093 -68.27411 13.291901 -139.94064 76.03412 -173.61026c62.742218 -33.669556 140.6279 -20.642395 188.67596 31.557922" fill-rule="evenodd"/><path fill="#000000" fill-opacity="0.0" d="m452.75592 -100.755905l939.90546 0l0 37.700787l-939.90546 0z" fill-rule="evenodd"/><path fill="#20124d" d="m501.39655 -37.265503l-0.984375 -3.84375q-3.265625 5.328125 -14.875 5.328125q-9.28125 0 -15.359375 -5.359375q-6.0625 -5.359375 -6.0625 -14.953125q0 -6.09375 3.5625 -10.671875q3.5625 -4.578125 9.6875 -6.421875q7.28125 -2.09375 19.609375 -2.296875q0.9375 -4.765625 0.3125 -4.046875q0.125 -0.40625 -2.453125 -0.015625q-2.015625 0 -5.6875 0.25q-5.90625 0.25 -18.4375 1.609375q-1.375 -9.25 -2.03125 -19.296875q8.875 -1.828125 16.1875 -2.765625q7.328125 -0.953125 13.203125 -0.953125q10.6875 0 16.359375 3.765625q5.6875 3.765625 7.359375 9.75q1.671875 5.96875 1.546875 14.515625l-0.125 18.171875l0.4375 17.234375l-22.25 0zm-8.671875 -17.5625q2.796875 0 4.25 -0.5l1.578125 -6.328125l0 1.578125q-8.109375 0 -8.328125 0.234375q-0.125 0.109375 -0.3125 0.859375q-0.1875 0.734375 -0.1875 1.53125q0 1.75 0.53125 2.1875q0.546875 0.4375 2.46875 0.4375zm128.88403 -39.515625q2.40625 3.625 2.40625 24.484375l0 32.59375l-26.359375 0l0 -30.484375l0 -6.6875q0 -3.53125 -0.109375 -3.625q-0.234375 -0.25 -2.28125 -0.25l-1.40625 0.125q-3.421875 0.21875 -4.859375 0.828125q0.046875 0.875 0.046875 7.5l0 32.59375l-26.359375 0l0 -30.484375l0 -7.4375q0 -2.78125 -0.109375 -2.875q-0.234375 -0.25 -2.28125 -0.25l-1.4375 0.125q-3.09375 0.109375 -4.78125 0.78125l0 40.140625l-26.359375 0l0 -62.203125l21.84375 0l1.421875 5.953125q1.1875 -1.578125 7.078125 -4.375q5.890625 -2.8125 11.921875 -2.8125q5.0 0 9.78125 1.578125q4.78125 1.5625 6.875 4.78125q1.046875 1.578125 -0.046875 2.3125q1.515625 -3.734375 7.109375 -6.203125q5.609375 -2.46875 11.25 -2.46875q4.984375 0 9.765625 1.578125q4.796875 1.5625 6.890625 4.78125zm44.23291 37.046875q3.0 0 11.4375 -0.625q1.09375 0 6.375 -0.4375l2.484375 17.078125q-11.796875 5.5 -27.625 5.5q-15.28125 0 -23.6875 -7.921875q-8.390625 -7.921875 -8.390625 -23.546875q0 -7.78125 2.046875 -15.1875q2.046875 -7.421875 4.953125 -10.609375q3.125 -3.28125 10.703125 -5.40625q7.578125 -2.125 14.875 -2.125q11.984375 0 18.28125 4.484375q6.3125 4.484375 8.203125 12.109375q1.890625 7.625 1.890625 22.15625q-10.9375 0.625 -19.078125 0.625l-15.03125 0q0 0.453125 1.078125 1.71875q1.078125 1.265625 3.59375 1.734375q2.53125 0.453125 7.890625 0.453125zm-12.6875 -23.671875q-0.484375 -0.859375 -0.3125 1.578125q0.1875 2.421875 0.15625 3.234375l3.78125 0q5.765625 0 5.859375 0q0 -2.703125 -1.078125 -4.28125q-1.0625 -1.59375 -3.78125 -1.59375q-2.703125 0 -4.625 1.0625zm79.86743 43.703125l-27.484375 0l0 -55.1875l-19.96875 0l0 -20.65625l67.40625 0l0 20.65625l-19.953125 0l0 55.1875zm34.49768 -64.109375q-5.234375 0 -9.0625 -3.578125q-3.8125 -3.59375 -3.8125 -8.671875q0 -5.078125 3.8125 -8.65625q3.828125 -3.59375 9.0625 -3.59375q5.25 0 8.984375 3.59375q3.75 3.59375 3.75 8.65625q0 5.0625 -3.75 8.65625q-3.734375 3.59375 -8.984375 3.59375zm-13.25 1.90625l26.359375 0l0 62.203125l-26.359375 0l0 -62.203125zm125.63165 5.125q2.40625 3.625 2.40625 24.484375l0 32.59375l-26.359375 0l0 -30.484375l0 -6.6875q0 -3.53125 -0.109375 -3.625q-0.234375 -0.25 -2.28125 -0.25l-1.40625 0.125q-3.421875 0.21875 -4.859375 0.828125q0.046875 0.875 0.046875 7.5l0 32.59375l-26.359375 0l0 -30.484375l0 -7.4375q0 -2.78125 -0.109375 -2.875q-0.234375 -0.25 -2.28125 -0.25l-1.4375 0.125q-3.09375 0.109375 -4.78125 0.78125l0 40.140625l-26.359375 0l0 -62.203125l21.84375 0l1.421875 5.953125q1.1875 -1.578125 7.078125 -4.375q5.890625 -2.8125 11.921875 -2.8125q5.0 0 9.78125 1.578125q4.78125 1.5625 6.875 4.78125q1.046875 1.578125 -0.046875 2.3125q1.515625 -3.734375 7.109375 -6.203125q5.609375 -2.46875 11.25 -2.46875q4.984375 0 9.765625 1.578125q4.796875 1.5625 6.890625 4.78125zm44.23291 37.046875q3.0 0 11.4375 -0.625q1.09375 0 6.375 -0.4375l2.484375 17.078125q-11.796875 5.5 -27.625 5.5q-15.28125 0 -23.6875 -7.921875q-8.390625 -7.921875 -8.390625 -23.546875q0 -7.78125 2.046875 -15.1875q2.046875 -7.421875 4.953125 -10.609375q3.125 -3.28125 10.703125 -5.40625q7.578125 -2.125 14.875 -2.125q11.984375 0 18.28125 4.484375q6.3125 4.484375 8.203125 12.109375q1.890625 7.625 1.890625 22.15625q-10.9375 0.625 -19.078125 0.625l-15.03125 0q0 0.453125 1.078125 1.71875q1.078125 1.265625 3.59375 1.734375q2.53125 0.453125 7.890625 0.453125zm-12.6875 -23.671875q-0.484375 -0.859375 -0.3125 1.578125q0.1875 2.421875 0.15625 3.234375l3.78125 0q5.765625 0 5.859375 0q0 -2.703125 -1.078125 -4.28125q-1.0625 -1.59375 -3.78125 -1.59375q-2.703125 0 -4.625 1.0625z" fill-rule="nonzero"/><path fill="#000000" fill-opacity="0.0" d="m301.12006 -276.56573l768.00006 0l0 89.60631l-768.00006 0z" fill-rule="evenodd"/><path fill="#000000" fill-opacity="0.0" d="m81.40526 204.29497l0 0c35.215378 -63.69536 101.33086 -103.975784 173.872 -105.93038c72.54114 -1.9546051 140.71387 34.707466 179.28217 96.41474l-173.77768 109.45676z" fill-rule="evenodd"/><path fill="#000000" fill-opacity="0.0" d="m81.40526 204.29497l0 0c35.215378 -63.69536 101.33086 -103.975784 173.872 -105.93038c72.54114 -1.9546051 140.71387 34.707466 179.28217 96.41474" fill-rule="evenodd"/><path stroke="#20124d" stroke-width="24.0" stroke-linejoin="round" stroke-linecap="butt" d="m81.40526 204.29497l0 0c35.215378 -63.69536 101.33086 -103.975784 173.872 -105.93038c72.54114 -1.9546051 140.71387 34.707466 179.28217 96.41474" fill-rule="evenodd"/><path fill="#000000" fill-opacity="0.0" d="m440.49817 403.5631l0 0c-46.182373 84.20795 -144.25208 125.143616 -236.29453 98.63266c-92.04245 -26.510956 -153.57341 -113.41638 -148.25607 -209.39468l204.83533 11.436188z" fill-rule="evenodd"/><path fill="#000000" fill-opacity="0.0" d="m440.49817 403.5631l0 0c-46.182373 84.20795 -144.25208 125.143616 -236.29453 98.63266c-92.04245 -26.510956 -153.57341 -113.41638 -148.25607 -209.39468" fill-rule="evenodd"/><path stroke="#20124d" stroke-width="24.0" stroke-linejoin="round" stroke-linecap="butt" d="m440.49817 403.5631l0 0c-46.182373 84.20795 -144.25208 125.143616 -236.29453 98.63266c-92.04245 -26.510956 -153.57341 -113.41638 -148.25607 -209.39468" fill-rule="evenodd"/><path fill="#20124d" d="m241.48393 46.933117l38.59874 0l0 51.357174l-38.59874 0z" fill-rule="evenodd"/><path fill="#20124d" d="m228.62001 26.2537l64.32619 0l0 0c8.42688 0 15.25824 9.098068 15.25824 20.321106c0 11.223038 -6.83136 20.321106 -15.25824 20.321106l-64.32619 0l0 0c-8.426895 0 -15.258255 -9.098068 -15.258255 -20.321106c0 -11.223038 6.83136 -20.321106 15.258255 -20.321106z" fill-rule="evenodd"/><path fill="#000000" fill-opacity="0.0" d="m401.43588 368.80945l0 0c-30.18518 64.26553 -100.9819 99.70987 -171.24345 85.73294c-70.26152 -13.976929 -121.68295 -73.733765 -124.37838 -144.54016c-2.6954193 -70.80635 44.03739 -134.2154 113.03753 -153.37404c69.00014 -19.158646 142.29134 10.924393 177.27708 72.765015l-135.34598 74.84288z" fill-rule="evenodd"/><path fill="#000000" fill-opacity="0.0" d="m401.43588 368.80945l0 0c-30.18518 64.26553 -100.9819 99.70987 -171.24345 85.73294c-70.26152 -13.976929 -121.68295 -73.733765 -124.37838 -144.54016c-2.6954193 -70.80635 44.03739 -134.2154 113.03753 -153.37404c69.00014 -19.158646 142.29134 10.924393 177.27708 72.765015" fill-rule="evenodd"/><path stroke="#9900ff" stroke-width="24.0" stroke-linejoin="round" stroke-linecap="butt" d="m401.43588 368.80945l0 0c-30.18518 64.26553 -100.9819 99.70987 -171.24345 85.73294c-70.26152 -13.976929 -121.68295 -73.733765 -124.37838 -144.54016c-2.6954193 -70.80635 44.03739 -134.2154 113.03753 -153.37404c69.00014 -19.158646 142.29134 10.924393 177.27708 72.765015" fill-rule="evenodd"/><path fill="#9900ff" fill-opacity="0.3889" d="m266.18454 350.0079l-10.549118 -153.61494l-10.549133 153.61494z" fill-rule="evenodd"/><path fill="#20124d" d="m235.07874 338.86447l257.7008 -12.982239l-257.7008 -12.982239z" fill-rule="evenodd"/><path stroke="#20124d" stroke-width="13.0" stroke-linejoin="round" stroke-linecap="butt" d="m235.07874 338.86447l257.7008 -12.982239l-257.7008 -12.982239z" fill-rule="evenodd"/><path fill="#20124d" d="m491.32822 444.32336l0 9.666138c-2.3558655 0.8800354 -4.592621 1.3200378 -6.7102356 1.3200378c-1.8661804 0 -3.249237 -0.39035034 -4.149231 -1.1710205c-0.8999939 -0.79486084 -1.3500061 -2.2355347 -1.3500061 -4.322052c0 -0.79489136 0.09927368 -1.6252441 0.29779053 -2.4910583c0.21179199 -0.8800354 0.52282715 -1.532959 0.93310547 -1.9587708c0.64852905 -0.6955261 3.9837952 -1.0432739 10.005798 -1.0432739zm-1.4690857 -37.429626c-3.7323303 0 -7.9609985 0.32647705 -12.685944 0.97940063c-4.711731 0.6529236 -9.224945 1.4619751 -13.539612 2.4271545c0.33087158 5.4079285 0.82058716 10.468109 1.4691162 15.180511c6.670532 -0.79486084 11.957977 -1.2774658 15.862366 -1.4477844c2.4353027 -0.1703186 4.341156 -0.25549316 5.717621 -0.25549316c2.197052 0 3.500702 0.1703186 3.9109802 0.5109863c0.48971558 0.3548584 0.7345581 3.4136658 0.7345581 9.176422c-9.516083 0.17034912 -16.550598 0.9510193 -21.103516 2.3420105c-3.4940796 1.1355286 -6.240387 3.0801086 -8.238922 5.83374c-1.98526 2.7394714 -2.9779053 5.940216 -2.9779053 9.602264c0 5.9331055 1.7271729 10.5390625 5.1815796 13.817871c3.4543762 3.2646484 7.90802 4.896942 13.360931 4.896942c6.6572876 0 11.858734 -3.2717285 15.604309 -9.815155l1.9455566 8.239624l17.331512 0l-0.37719727 -15.436005l0.13897705 -19.2258c0.07940674 -5.7627563 -0.37060547 -10.517761 -1.3500061 -14.264984c-0.97940063 -3.747223 -3.097046 -6.777649 -6.3529053 -9.091278c-3.2426147 -2.3135986 -8.1197815 -3.4704285 -14.6315 -3.4704285z" fill-rule="evenodd"/><path fill="#20124d" d="m560.6086 406.89374c-3.5734863 0 -7.1139526 0.8942261 -10.621277 2.6826782c-3.4940796 1.7884521 -6.577881 4.605957 -9.251404 8.452545l-2.2036133 -9.815186l-16.954285 0l0 60.168457l20.865234 0l0 -41.474915c2.4353027 -1.0361633 4.7911377 -1.6039429 7.067627 -1.7032776l1.4691162 -0.12774658c2.10437 0 3.4874878 0.3477478 4.149231 1.0432434c0.5690918 0.61035156 0.8536377 2.2710571 0.8536377 4.9821167l0 7.8563843l0 29.424194l20.845459 0l0 -31.65976c0 -4.6130676 -0.03967285 -7.8421936 -0.119140625 -9.687408c2.2764893 -1.0361633 4.672058 -1.6465149 7.1867676 -1.8310242l1.4690552 -0.12774658c2.1176758 0 3.5007324 0.3477478 4.149292 1.0432434c0.5690918 0.61035156 0.8536377 2.5336304 0.8536377 5.769867l0 7.068634l0 29.424194l20.865295 0l0 -31.65976c0 -14.123047 -0.65515137 -22.234924 -1.9654541 -24.335632c-1.0455322 -1.7458801 -2.9315796 -3.0942993 -5.65802 -4.0453186c-2.7264404 -0.96517944 -5.591858 -1.4477844 -8.596252 -1.4477844c-3.335266 0 -6.670532 0.78778076 -10.005798 2.3633118c-3.335266 1.575531 -6.3065796 4.0594788 -8.91394 7.4518433c-0.31762695 -2.0865173 -0.7213135 -3.5271912 -1.2109985 -4.322052c-1.0588379 -1.7458801 -2.951477 -3.0942993 -5.6779175 -4.0453186c-2.7264404 -0.96517944 -5.591858 -1.4477844 -8.596252 -1.4477844z" fill-rule="evenodd"/><path fill="#20124d" d="m646.9725 421.15872c2.673523 0 4.5595703 0.8729553 5.658081 2.618805c1.0985107 1.7458801 1.6477661 4.7124023 1.6477661 8.899658c-1.7073364 0.08514404 -4.466858 0.12774658 -8.2786255 0.12774658l-6.3529053 0c0.07940674 -2.5265503 0.23828125 -4.790497 0.47650146 -6.7918396c0.25146484 -2.015564 0.6220703 -3.1510925 1.1117554 -3.4065857c1.6279297 -0.96517944 3.5404053 -1.4477844 5.7374268 -1.4477844zm1.2110596 -14.137238c-4.5529175 0 -9.145508 0.7026062 -13.777832 2.1078186c-4.632324 1.3910217 -7.802185 3.0446167 -9.5095215 4.9608154c-1.6279297 1.9161987 -3.0771484 5.322754 -4.3477783 10.219696c-1.2573242 4.882721 -1.8859863 9.935791 -1.8859863 15.15921c0 10.205505 2.5014648 17.841858 7.5043335 22.90915c5.0029297 5.05307 12.183044 7.57959 21.540283 7.57959c9.992615 0 18.119019 -1.5684204 24.379272 -4.7053223l-1.826477 -13.477203c-1.9455566 0.1703186 -3.2889404 0.25549316 -4.0300903 0.25549316c-5.519104 0.44000244 -9.2977295 0.66000366 -11.335999 0.66000366c-3.652893 0 -6.498474 -0.19869995 -8.536682 -0.5961304c-2.038208 -0.39743042 -3.6065674 -1.2916565 -4.705139 -2.6826782c-1.0852661 -1.3910217 -1.6279297 -3.4846497 -1.6279297 -6.2808533l17.311646 0c5.280884 0 10.687439 -0.1703186 16.219788 -0.5109863c0 -8.289307 -0.56915283 -14.896637 -1.7073364 -19.82196c-1.1382446 -4.9253235 -3.5404663 -8.786072 -7.206604 -11.582306c-3.652893 -2.7962341 -9.138916 -4.194336 -16.457947 -4.194336z" fill-rule="evenodd"/><path fill="#20124d" d="m676.8479 393.82104l0 16.351501l19.63446 0l0 58.209686l21.957153 0l0 -58.209686l19.63446 0l0 -16.351501z" fill-rule="evenodd"/><path fill="#20124d" d="m754.92084 380.34384c-2.7661743 0 -5.1484985 1.0077515 -7.1469727 3.0233154c-1.9852905 2.0013428 -2.9779663 4.393036 -2.9779663 7.1750793c0 2.7962036 0.9926758 5.202118 2.9779663 7.2176514c1.9984741 2.0013733 4.3807983 3.0020447 7.1469727 3.0020447c2.7661743 0 5.1220093 -1.0006714 7.067627 -3.0020447c1.9588013 -2.0155334 2.9381714 -4.4214478 2.9381714 -7.2176514c0 -2.7820435 -0.9793701 -5.1737366 -2.9381714 -7.1750793c-1.9456177 -2.015564 -4.3014526 -3.0233154 -7.067627 -3.0233154zm-10.502136 27.869934l0 60.168457l20.865295 0l0 -60.168457z" fill-rule="evenodd"/><path fill="#20124d" d="m814.68365 406.89374c-3.5735474 0 -7.1139526 0.8942261 -10.621277 2.6826782c-3.4940796 1.7884521 -6.577881 4.605957 -9.251404 8.452545l-2.2036743 -9.815186l-16.954285 0l0 60.168457l20.865295 0l0 -41.474915c2.4353027 -1.0361633 4.7911377 -1.6039429 7.067627 -1.7032776l1.4690552 -0.12774658c2.1044312 0 3.4874878 0.3477478 4.149292 1.0432434c0.5690918 0.61035156 0.8536377 2.2710571 0.8536377 4.9821167l0 7.8563843l0 29.424194l20.845459 0l0 -31.65976c0 -4.6130676 -0.039733887 -7.8421936 -0.119140625 -9.687408c2.2764282 -1.0361633 4.671997 -1.6465149 7.1867065 -1.8310242l1.4691162 -0.12774658c2.1176147 0 3.5007324 0.3477478 4.149231 1.0432434c0.5690918 0.61035156 0.85369873 2.5336304 0.85369873 5.769867l0 7.068634l0 29.424194l20.865295 0l0 -31.65976c0 -14.123047 -0.65515137 -22.234924 -1.9654541 -24.335632c-1.0455933 -1.7458801 -2.9315796 -3.0942993 -5.65802 -4.0453186c-2.7265015 -0.96517944 -5.591919 -1.4477844 -8.596313 -1.4477844c-3.335266 0 -6.670532 0.78778076 -10.005798 2.3633118c-3.335266 1.575531 -6.3065796 4.0594788 -8.913879 7.4518433c-0.317688 -2.0865173 -0.7213135 -3.5271912 -1.2110596 -4.322052c-1.0587769 -1.7458801 -2.951416 -3.0942993 -5.6778564 -4.0453186c-2.7265015 -0.96517944 -5.591919 -1.4477844 -8.596252 -1.4477844z" fill-rule="evenodd"/><path fill="#20124d" d="m901.04755 421.15872c2.673523 0 4.5595703 0.8729553 5.658081 2.618805c1.0985107 1.7458801 1.6477661 4.7124023 1.6477661 8.899658c-1.7073364 0.08514404 -4.466858 0.12774658 -8.2786255 0.12774658l-6.3529053 0c0.07940674 -2.5265503 0.23828125 -4.790497 0.47650146 -6.7918396c0.25146484 -2.015564 0.6220703 -3.1510925 1.1117554 -3.4065857c1.6279297 -0.96517944 3.5404053 -1.4477844 5.7374268 -1.4477844zm1.2110596 -14.137238c-4.5529175 0 -9.145508 0.7026062 -13.777832 2.1078186c-4.632324 1.3910217 -7.802185 3.0446167 -9.5095215 4.9608154c-1.6279297 1.9161987 -3.0772095 5.322754 -4.3477783 10.219696c-1.2573242 4.882721 -1.8859863 9.935791 -1.8859863 15.15921c0 10.205505 2.5014648 17.841858 7.5043335 22.90915c5.0029297 5.05307 12.183044 7.57959 21.540283 7.57959c9.992554 0 18.119019 -1.5684204 24.379272 -4.7053223l-1.826477 -13.477203c-1.9455566 0.1703186 -3.2889404 0.25549316 -4.0300903 0.25549316c-5.519104 0.44000244 -9.2977295 0.66000366 -11.335999 0.66000366c-3.652893 0 -6.498474 -0.19869995 -8.536682 -0.5961304c-2.038208 -0.39743042 -3.6066284 -1.2916565 -4.705139 -2.6826782c-1.0852661 -1.3910217 -1.6279297 -3.4846497 -1.6279297 -6.2808533l17.311646 0c5.280884 0 10.687439 -0.1703186 16.219788 -0.5109863c0 -8.289307 -0.56915283 -14.896637 -1.7073975 -19.82196c-1.1381836 -4.9253235 -3.5404053 -8.786072 -7.206543 -11.582306c-3.652893 -2.7962341 -9.138916 -4.194336 -16.457947 -4.194336z" fill-rule="evenodd"/><path stroke="#20124d" stroke-width="1.0" stroke-linejoin="round" stroke-linecap="butt" d="m491.32822 444.32336l0 9.666138c-2.3558655 0.8800354 -4.592621 1.3200378 -6.7102356 1.3200378c-1.8661804 0 -3.249237 -0.39035034 -4.149231 -1.1710205c-0.8999939 -0.79486084 -1.3500061 -2.2355347 -1.3500061 -4.322052c0 -0.79489136 0.09927368 -1.6252441 0.29779053 -2.4910583c0.21179199 -0.8800354 0.52282715 -1.532959 0.93310547 -1.9587708c0.64852905 -0.6955261 3.9837952 -1.0432739 10.005798 -1.0432739zm-1.4690857 -37.429626c-3.7323303 0 -7.9609985 0.32647705 -12.685944 0.97940063c-4.711731 0.6529236 -9.224945 1.4619751 -13.539612 2.4271545c0.33087158 5.4079285 0.82058716 10.468109 1.4691162 15.180511c6.670532 -0.79486084 11.957977 -1.2774658 15.862366 -1.4477844c2.4353027 -0.1703186 4.341156 -0.25549316 5.717621 -0.25549316c2.197052 0 3.500702 0.1703186 3.9109802 0.5109863c0.48971558 0.3548584 0.7345581 3.4136658 0.7345581 9.176422c-9.516083 0.17034912 -16.550598 0.9510193 -21.103516 2.3420105c-3.4940796 1.1355286 -6.240387 3.0801086 -8.238922 5.83374c-1.98526 2.7394714 -2.9779053 5.940216 -2.9779053 9.602264c0 5.9331055 1.7271729 10.5390625 5.1815796 13.817871c3.4543762 3.2646484 7.90802 4.896942 13.360931 4.896942c6.6572876 0 11.858734 -3.2717285 15.604309 -9.815155l1.9455566 8.239624l17.331512 0l-0.37719727 -15.436005l0.13897705 -19.2258c0.07940674 -5.7627563 -0.37060547 -10.517761 -1.3500061 -14.264984c-0.97940063 -3.747223 -3.097046 -6.777649 -6.3529053 -9.091278c-3.2426147 -2.3135986 -8.1197815 -3.4704285 -14.6315 -3.4704285z" fill-rule="evenodd"/><path stroke="#20124d" stroke-width="1.0" stroke-linejoin="round" stroke-linecap="butt" d="m560.6086 406.89374c-3.5734863 0 -7.1139526 0.8942261 -10.621277 2.6826782c-3.4940796 1.7884521 -6.577881 4.605957 -9.251404 8.452545l-2.2036133 -9.815186l-16.954285 0l0 60.168457l20.865234 0l0 -41.474915c2.4353027 -1.0361633 4.7911377 -1.6039429 7.067627 -1.7032776l1.4691162 -0.12774658c2.10437 0 3.4874878 0.3477478 4.149231 1.0432434c0.5690918 0.61035156 0.8536377 2.2710571 0.8536377 4.9821167l0 7.8563843l0 29.424194l20.845459 0l0 -31.65976c0 -4.6130676 -0.03967285 -7.8421936 -0.119140625 -9.687408c2.2764893 -1.0361633 4.672058 -1.6465149 7.1867676 -1.8310242l1.4690552 -0.12774658c2.1176758 0 3.5007324 0.3477478 4.149292 1.0432434c0.5690918 0.61035156 0.8536377 2.5336304 0.8536377 5.769867l0 7.068634l0 29.424194l20.865295 0l0 -31.65976c0 -14.123047 -0.65515137 -22.234924 -1.9654541 -24.335632c-1.0455322 -1.7458801 -2.9315796 -3.0942993 -5.65802 -4.0453186c-2.7264404 -0.96517944 -5.591858 -1.4477844 -8.596252 -1.4477844c-3.335266 0 -6.670532 0.78778076 -10.005798 2.3633118c-3.335266 1.575531 -6.3065796 4.0594788 -8.91394 7.4518433c-0.31762695 -2.0865173 -0.7213135 -3.5271912 -1.2109985 -4.322052c-1.0588379 -1.7458801 -2.951477 -3.0942993 -5.6779175 -4.0453186c-2.7264404 -0.96517944 -5.591858 -1.4477844 -8.596252 -1.4477844z" fill-rule="evenodd"/><path stroke="#20124d" stroke-width="1.0" stroke-linejoin="round" stroke-linecap="butt" d="m646.9725 421.15872c2.673523 0 4.5595703 0.8729553 5.658081 2.618805c1.0985107 1.7458801 1.6477661 4.7124023 1.6477661 8.899658c-1.7073364 0.08514404 -4.466858 0.12774658 -8.2786255 0.12774658l-6.3529053 0c0.07940674 -2.5265503 0.23828125 -4.790497 0.47650146 -6.7918396c0.25146484 -2.015564 0.6220703 -3.1510925 1.1117554 -3.4065857c1.6279297 -0.96517944 3.5404053 -1.4477844 5.7374268 -1.4477844zm1.2110596 -14.137238c-4.5529175 0 -9.145508 0.7026062 -13.777832 2.1078186c-4.632324 1.3910217 -7.802185 3.0446167 -9.5095215 4.9608154c-1.6279297 1.9161987 -3.0771484 5.322754 -4.3477783 10.219696c-1.2573242 4.882721 -1.8859863 9.935791 -1.8859863 15.15921c0 10.205505 2.5014648 17.841858 7.5043335 22.90915c5.0029297 5.05307 12.183044 7.57959 21.540283 7.57959c9.992615 0 18.119019 -1.5684204 24.379272 -4.7053223l-1.826477 -13.477203c-1.9455566 0.1703186 -3.2889404 0.25549316 -4.0300903 0.25549316c-5.519104 0.44000244 -9.2977295 0.66000366 -11.335999 0.66000366c-3.652893 0 -6.498474 -0.19869995 -8.536682 -0.5961304c-2.038208 -0.39743042 -3.6065674 -1.2916565 -4.705139 -2.6826782c-1.0852661 -1.3910217 -1.6279297 -3.4846497 -1.6279297 -6.2808533l17.311646 0c5.280884 0 10.687439 -0.1703186 16.219788 -0.5109863c0 -8.289307 -0.56915283 -14.896637 -1.7073364 -19.82196c-1.1382446 -4.9253235 -3.5404663 -8.786072 -7.206604 -11.582306c-3.652893 -2.7962341 -9.138916 -4.194336 -16.457947 -4.194336z" fill-rule="evenodd"/><path stroke="#20124d" stroke-width="1.0" stroke-linejoin="round" stroke-linecap="butt" d="m676.8479 393.82104l0 16.351501l19.63446 0l0 58.209686l21.957153 0l0 -58.209686l19.63446 0l0 -16.351501z" fill-rule="evenodd"/><path stroke="#20124d" stroke-width="1.0" stroke-linejoin="round" stroke-linecap="butt" d="m754.92084 380.34384c-2.7661743 0 -5.1484985 1.0077515 -7.1469727 3.0233154c-1.9852905 2.0013428 -2.9779663 4.393036 -2.9779663 7.1750793c0 2.7962036 0.9926758 5.202118 2.9779663 7.2176514c1.9984741 2.0013733 4.3807983 3.0020447 7.1469727 3.0020447c2.7661743 0 5.1220093 -1.0006714 7.067627 -3.0020447c1.9588013 -2.0155334 2.9381714 -4.4214478 2.9381714 -7.2176514c0 -2.7820435 -0.9793701 -5.1737366 -2.9381714 -7.1750793c-1.9456177 -2.015564 -4.3014526 -3.0233154 -7.067627 -3.0233154zm-10.502136 27.869934l0 60.168457l20.865295 0l0 -60.168457z" fill-rule="evenodd"/><path stroke="#20124d" stroke-width="1.0" stroke-linejoin="round" stroke-linecap="butt" d="m814.68365 406.89374c-3.5735474 0 -7.1139526 0.8942261 -10.621277 2.6826782c-3.4940796 1.7884521 -6.577881 4.605957 -9.251404 8.452545l-2.2036743 -9.815186l-16.954285 0l0 60.168457l20.865295 0l0 -41.474915c2.4353027 -1.0361633 4.7911377 -1.6039429 7.067627 -1.7032776l1.4690552 -0.12774658c2.1044312 0 3.4874878 0.3477478 4.149292 1.0432434c0.5690918 0.61035156 0.8536377 2.2710571 0.8536377 4.9821167l0 7.8563843l0 29.424194l20.845459 0l0 -31.65976c0 -4.6130676 -0.039733887 -7.8421936 -0.119140625 -9.687408c2.2764282 -1.0361633 4.671997 -1.6465149 7.1867065 -1.8310242l1.4691162 -0.12774658c2.1176147 0 3.5007324 0.3477478 4.149231 1.0432434c0.5690918 0.61035156 0.85369873 2.5336304 0.85369873 5.769867l0 7.068634l0 29.424194l20.865295 0l0 -31.65976c0 -14.123047 -0.65515137 -22.234924 -1.9654541 -24.335632c-1.0455933 -1.7458801 -2.9315796 -3.0942993 -5.65802 -4.0453186c-2.7265015 -0.96517944 -5.591919 -1.4477844 -8.596313 -1.4477844c-3.335266 0 -6.670532 0.78778076 -10.005798 2.3633118c-3.335266 1.575531 -6.3065796 4.0594788 -8.913879 7.4518433c-0.317688 -2.0865173 -0.7213135 -3.5271912 -1.2110596 -4.322052c-1.0587769 -1.7458801 -2.951416 -3.0942993 -5.6778564 -4.0453186c-2.7265015 -0.96517944 -5.591919 -1.4477844 -8.596252 -1.4477844z" fill-rule="evenodd"/><path stroke="#20124d" stroke-width="1.0" stroke-linejoin="round" stroke-linecap="butt" d="m901.04755 421.15872c2.673523 0 4.5595703 0.8729553 5.658081 2.618805c1.0985107 1.7458801 1.6477661 4.7124023 1.6477661 8.899658c-1.7073364 0.08514404 -4.466858 0.12774658 -8.2786255 0.12774658l-6.3529053 0c0.07940674 -2.5265503 0.23828125 -4.790497 0.47650146 -6.7918396c0.25146484 -2.015564 0.6220703 -3.1510925 1.1117554 -3.4065857c1.6279297 -0.96517944 3.5404053 -1.4477844 5.7374268 -1.4477844zm1.2110596 -14.137238c-4.5529175 0 -9.145508 0.7026062 -13.777832 2.1078186c-4.632324 1.3910217 -7.802185 3.0446167 -9.5095215 4.9608154c-1.6279297 1.9161987 -3.0772095 5.322754 -4.3477783 10.219696c-1.2573242 4.882721 -1.8859863 9.935791 -1.8859863 15.15921c0 10.205505 2.5014648 17.841858 7.5043335 22.90915c5.0029297 5.05307 12.183044 7.57959 21.540283 7.57959c9.992554 0 18.119019 -1.5684204 24.379272 -4.7053223l-1.826477 -13.477203c-1.9455566 0.1703186 -3.2889404 0.25549316 -4.0300903 0.25549316c-5.519104 0.44000244 -9.2977295 0.66000366 -11.335999 0.66000366c-3.652893 0 -6.498474 -0.19869995 -8.536682 -0.5961304c-2.038208 -0.39743042 -3.6066284 -1.2916565 -4.705139 -2.6826782c-1.0852661 -1.3910217 -1.6279297 -3.4846497 -1.6279297 -6.2808533l17.311646 0c5.280884 0 10.687439 -0.1703186 16.219788 -0.5109863c0 -8.289307 -0.56915283 -14.896637 -1.7073975 -19.82196c-1.1381836 -4.9253235 -3.5404053 -8.786072 -7.206543 -11.582306c-3.652893 -2.7962341 -9.138916 -4.194336 -16.457947 -4.194336z" fill-rule="evenodd"/><path fill="#20124d" d="m1325.3282 78.32337l0 9.666122c-2.355835 0.8800354 -4.5926514 1.3200455 -6.710327 1.3200455c-1.8660889 0 -3.2491455 -0.39033508 -4.14917 -1.1710052c-0.9000244 -0.79486847 -1.3499756 -2.2355576 -1.3499756 -4.3220825c0 -0.79486847 0.099243164 -1.6252136 0.2977295 -2.491043c0.21179199 -0.8800354 0.52282715 -1.532959 0.93310547 -1.9587784c0.6485596 -0.69550323 3.9837646 -1.0432587 10.005859 -1.0432587zm-1.4691162 -37.42963c-3.7322998 0 -7.9609375 0.3264618 -12.685913 0.9793892c-4.711792 0.6529274 -9.224976 1.4619865 -13.539673 2.4271774c0.33093262 5.407921 0.8206787 10.46809 1.4691162 15.180504c6.670532 -0.79486465 11.958008 -1.277462 15.862427 -1.447792c2.4353027 -0.17032623 4.3411865 -0.25549316 5.7175293 -0.25549316c2.1971436 0 3.5007324 0.17033005 3.9110107 0.5109863c0.4897461 0.35485077 0.73461914 3.4136658 0.73461914 9.17643c-9.516113 0.17033386 -16.55066 0.9509964 -21.103516 2.3420181c-3.4941406 1.1355209 -6.2404785 3.0801086 -8.238892 5.83374c-1.9853516 2.739441 -2.9780273 5.940193 -2.9780273 9.602257c0 5.93309 1.7272949 10.539055 5.1816406 13.817871c3.4543457 3.2646332 7.907959 4.896942 13.360962 4.896942c6.6572266 0 11.858643 -3.271721 15.604248 -9.81517l1.9455566 8.239632l17.331543 0l-0.37719727 -15.435997l0.13891602 -19.2258c0.07946777 -5.7627716 -0.37060547 -10.517765 -1.3499756 -14.264988c-0.9793701 -3.747219 -3.097046 -6.7776413 -6.3529053 -9.091267c-3.2425537 -2.3136292 -8.119751 -3.47044 -14.63147 -3.47044z" fill-rule="evenodd"/><path fill="#20124d" d="m1394.6085 40.89374c-3.5734863 0 -7.1138916 0.8942261 -10.621216 2.6826706c-3.4940186 1.7884445 -6.577881 4.605957 -9.251343 8.452538l-2.2037354 -9.815163l-16.954224 0l0 60.168446l20.865234 0l0 -41.474922c2.4353027 -1.0361671 4.7911377 -1.6039276 7.067627 -1.7032852l1.4691162 -0.12774277c2.10437 0 3.4874268 0.34775162 4.14917 1.0432587c0.56921387 0.61034393 0.85375977 2.2710457 0.85375977 4.9820976l0 7.856392l0 29.424202l20.845459 0l0 -31.65976c0 -4.6130524 -0.039794922 -7.8421936 -0.119140625 -9.687416c2.2763672 -1.0361671 4.671997 -1.6465111 7.1866455 -1.8310318l1.4691162 -0.12774277c2.1176758 0 3.5007324 0.34775162 4.149292 1.0432587c0.5690918 0.61034393 0.8536377 2.5336342 0.8536377 5.7698708l0 7.068619l0 29.424202l20.865234 0l0 -31.65976c0 -14.123047 -0.6550293 -22.234928 -1.965332 -24.335644c-1.0456543 -1.7458649 -2.9316406 -3.0942955 -5.658081 -4.0452957c-2.7264404 -0.9651909 -5.591919 -1.447792 -8.596313 -1.447792c-3.335205 0 -6.670532 0.7877693 -10.005737 2.3633041c-3.3353271 1.5755386 -6.3066406 4.059494 -8.91394 7.4518623c-0.31762695 -2.0865211 -0.7213135 -3.5272179 -1.2110596 -4.3220787c-1.0587158 -1.7458649 -2.951416 -3.0942955 -5.6778564 -4.0452957c-2.7264404 -0.9651909 -5.591919 -1.447792 -8.596313 -1.447792z" fill-rule="evenodd"/><path fill="#20124d" d="m1480.9725 55.158733c2.673462 0 4.5594482 0.8729286 5.657959 2.6187935c1.0986328 1.7458649 1.6478271 4.712414 1.6478271 8.899651c-1.7072754 0.08516693 -4.466919 0.12774658 -8.278564 0.12774658l-6.3529053 0c0.0793457 -2.526535 0.23815918 -4.7904778 0.47644043 -6.7918396c0.25146484 -2.0155525 0.6220703 -3.1510696 1.1116943 -3.4065628c1.6279297 -0.9651909 3.5405273 -1.4477882 5.737549 -1.4477882zm1.2109375 -14.137245c-4.5528564 0 -9.145508 0.7026062 -13.777832 2.107811c-4.632324 1.3910141 -7.802124 3.0446167 -9.509399 4.9608116c-1.6279297 1.9161911 -3.0772705 5.3227577 -4.3477783 10.219692c-1.2573242 4.88274 -1.8861084 9.93581 -1.8861084 15.159214c0 10.205505 2.5014648 17.84188 7.5043945 22.909142c5.0029297 5.0530777 12.182983 7.5796127 21.540283 7.5796127c9.992554 0 18.119019 -1.5684357 24.379272 -4.7053223l-1.826416 -13.477219c-1.9456787 0.17032623 -3.2890625 0.25549316 -4.0301514 0.25549316c-5.519043 0.44001007 -9.2977295 0.6600189 -11.3359375 0.6600189c-3.652954 0 -6.498535 -0.19871521 -8.536743 -0.59614563c-2.038208 -0.39743042 -3.6065674 -1.2916565 -4.705078 -2.6826706c-1.0853271 -1.3910141 -1.6279297 -3.484642 -1.6279297 -6.2808533l17.311646 0c5.2807617 0 10.687378 -0.17032623 16.219727 -0.5109863c0 -8.289307 -0.5690918 -14.896622 -1.7073975 -19.821945c-1.1381836 -4.9253235 -3.5404053 -8.786095 -7.206543 -11.582321c-3.652954 -2.7962189 -9.138916 -4.194332 -16.458008 -4.194332z" fill-rule="evenodd"/><path fill="#20124d" d="m1510.8479 27.82105l0 16.351511l19.6344 0l0 58.20967l21.957275 0l0 -58.20967l19.6344 0l0 -16.351511z" fill-rule="evenodd"/><path fill="#20124d" d="m1588.9209 14.34383c-2.7662354 0 -5.1485596 1.0077763 -7.1470947 3.0233269c-1.9852295 2.0013561 -2.9779053 4.3930473 -2.9779053 7.1750755c0 2.7962208 0.9926758 5.2021065 2.9779053 7.217659c1.9985352 2.001358 4.3808594 3.0020332 7.1470947 3.0020332c2.7661133 0 5.1219482 -1.0006752 7.067505 -3.0020332c1.9588623 -2.0155525 2.9382324 -4.421438 2.9382324 -7.217659c0 -2.7820282 -0.9793701 -5.1737213 -2.9382324 -7.1750755c-1.9455566 -2.0155506 -4.3013916 -3.0233269 -7.067505 -3.0233269zm-10.502197 27.869957l0 60.168446l20.865356 0l0 -60.168446z" fill-rule="evenodd"/><path fill="#20124d" d="m1648.6836 40.89374c-3.5734863 0 -7.1138916 0.8942261 -10.621216 2.6826706c-3.4941406 1.7884445 -6.577881 4.605957 -9.251343 8.452538l-2.2037354 -9.815163l-16.954224 0l0 60.168446l20.865234 0l0 -41.474922c2.4353027 -1.0361671 4.7911377 -1.6039276 7.067627 -1.7032852l1.4691162 -0.12774277c2.10437 0 3.4874268 0.34775162 4.14917 1.0432587c0.5690918 0.61034393 0.85375977 2.2710457 0.85375977 4.9820976l0 7.856392l0 29.424202l20.845337 0l0 -31.65976c0 -4.6130524 -0.03967285 -7.8421936 -0.119018555 -9.687416c2.2763672 -1.0361671 4.671997 -1.6465111 7.1866455 -1.8310318l1.4691162 -0.12774277c2.1176758 0 3.5007324 0.34775162 4.149292 1.0432587c0.5690918 0.61034393 0.8536377 2.5336342 0.8536377 5.7698708l0 7.068619l0 29.424202l20.865234 0l0 -31.65976c0 -14.123047 -0.65515137 -22.234928 -1.965332 -24.335644c-1.0456543 -1.7458649 -2.9316406 -3.0942955 -5.658081 -4.0452957c-2.7264404 -0.9651909 -5.591919 -1.447792 -8.596313 -1.447792c-3.335205 0 -6.670532 0.7877693 -10.005737 2.3633041c-3.3353271 1.5755386 -6.3066406 4.059494 -8.91394 7.4518623c-0.31762695 -2.0865211 -0.7213135 -3.5272179 -1.2110596 -4.3220787c-1.0588379 -1.7458649 -2.951416 -3.0942955 -5.6778564 -4.0452957c-2.7264404 -0.9651909 -5.591919 -1.447792 -8.596313 -1.447792z" fill-rule="evenodd"/><path fill="#20124d" d="m1735.0476 55.158733c2.673462 0 4.5594482 0.8729286 5.657959 2.6187935c1.0985107 1.7458649 1.6478271 4.712414 1.6478271 8.899651c-1.7073975 0.08516693 -4.466919 0.12774658 -8.278564 0.12774658l-6.3529053 0c0.0793457 -2.526535 0.23815918 -4.7904778 0.47644043 -6.7918396c0.25146484 -2.0155525 0.6220703 -3.1510696 1.1116943 -3.4065628c1.6279297 -0.9651909 3.5404053 -1.4477882 5.737549 -1.4477882zm1.2109375 -14.137245c-4.5528564 0 -9.145508 0.7026062 -13.777832 2.107811c-4.632324 1.3910141 -7.802124 3.0446167 -9.509399 4.9608116c-1.6279297 1.9161911 -3.0772705 5.3227577 -4.3477783 10.219692c-1.2573242 4.88274 -1.8861084 9.93581 -1.8861084 15.159214c0 10.205505 2.5014648 17.84188 7.5043945 22.909142c5.0029297 5.0530777 12.182983 7.5796127 21.540283 7.5796127c9.992554 0 18.119019 -1.5684357 24.379272 -4.7053223l-1.8265381 -13.477219c-1.9455566 0.17032623 -3.2889404 0.25549316 -4.0300293 0.25549316c-5.519165 0.44001007 -9.2977295 0.6600189 -11.3359375 0.6600189c-3.652954 0 -6.498535 -0.19871521 -8.536743 -0.59614563c-2.038208 -0.39743042 -3.6065674 -1.2916565 -4.705078 -2.6826706c-1.0853271 -1.3910141 -1.6279297 -3.484642 -1.6279297 -6.2808533l17.311646 0c5.2807617 0 10.687378 -0.17032623 16.219727 -0.5109863c0 -8.289307 -0.5690918 -14.896622 -1.7073975 -19.821945c-1.1381836 -4.9253235 -3.5404053 -8.786095 -7.206543 -11.582321c-3.652954 -2.7962189 -9.138916 -4.194332 -16.458008 -4.194332z" fill-rule="evenodd"/><path stroke="#20124d" stroke-width="1.0" stroke-linejoin="round" stroke-linecap="butt" d="m1325.3282 78.32337l0 9.666122c-2.355835 0.8800354 -4.5926514 1.3200455 -6.710327 1.3200455c-1.8660889 0 -3.2491455 -0.39033508 -4.14917 -1.1710052c-0.9000244 -0.79486847 -1.3499756 -2.2355576 -1.3499756 -4.3220825c0 -0.79486847 0.099243164 -1.6252136 0.2977295 -2.491043c0.21179199 -0.8800354 0.52282715 -1.532959 0.93310547 -1.9587784c0.6485596 -0.69550323 3.9837646 -1.0432587 10.005859 -1.0432587zm-1.4691162 -37.42963c-3.7322998 0 -7.9609375 0.3264618 -12.685913 0.9793892c-4.711792 0.6529274 -9.224976 1.4619865 -13.539673 2.4271774c0.33093262 5.407921 0.8206787 10.46809 1.4691162 15.180504c6.670532 -0.79486465 11.958008 -1.277462 15.862427 -1.447792c2.4353027 -0.17032623 4.3411865 -0.25549316 5.7175293 -0.25549316c2.1971436 0 3.5007324 0.17033005 3.9110107 0.5109863c0.4897461 0.35485077 0.73461914 3.4136658 0.73461914 9.17643c-9.516113 0.17033386 -16.55066 0.9509964 -21.103516 2.3420181c-3.4941406 1.1355209 -6.2404785 3.0801086 -8.238892 5.83374c-1.9853516 2.739441 -2.9780273 5.940193 -2.9780273 9.602257c0 5.93309 1.7272949 10.539055 5.1816406 13.817871c3.4543457 3.2646332 7.907959 4.896942 13.360962 4.896942c6.6572266 0 11.858643 -3.271721 15.604248 -9.81517l1.9455566 8.239632l17.331543 0l-0.37719727 -15.435997l0.13891602 -19.2258c0.07946777 -5.7627716 -0.37060547 -10.517765 -1.3499756 -14.264988c-0.9793701 -3.747219 -3.097046 -6.7776413 -6.3529053 -9.091267c-3.2425537 -2.3136292 -8.119751 -3.47044 -14.63147 -3.47044z" fill-rule="evenodd"/><path stroke="#20124d" stroke-width="1.0" stroke-linejoin="round" stroke-linecap="butt" d="m1394.6085 40.89374c-3.5734863 0 -7.1138916 0.8942261 -10.621216 2.6826706c-3.4940186 1.7884445 -6.577881 4.605957 -9.251343 8.452538l-2.2037354 -9.815163l-16.954224 0l0 60.168446l20.865234 0l0 -41.474922c2.4353027 -1.0361671 4.7911377 -1.6039276 7.067627 -1.7032852l1.4691162 -0.12774277c2.10437 0 3.4874268 0.34775162 4.14917 1.0432587c0.56921387 0.61034393 0.85375977 2.2710457 0.85375977 4.9820976l0 7.856392l0 29.424202l20.845459 0l0 -31.65976c0 -4.6130524 -0.039794922 -7.8421936 -0.119140625 -9.687416c2.2763672 -1.0361671 4.671997 -1.6465111 7.1866455 -1.8310318l1.4691162 -0.12774277c2.1176758 0 3.5007324 0.34775162 4.149292 1.0432587c0.5690918 0.61034393 0.8536377 2.5336342 0.8536377 5.7698708l0 7.068619l0 29.424202l20.865234 0l0 -31.65976c0 -14.123047 -0.6550293 -22.234928 -1.965332 -24.335644c-1.0456543 -1.7458649 -2.9316406 -3.0942955 -5.658081 -4.0452957c-2.7264404 -0.9651909 -5.591919 -1.447792 -8.596313 -1.447792c-3.335205 0 -6.670532 0.7877693 -10.005737 2.3633041c-3.3353271 1.5755386 -6.3066406 4.059494 -8.91394 7.4518623c-0.31762695 -2.0865211 -0.7213135 -3.5272179 -1.2110596 -4.3220787c-1.0587158 -1.7458649 -2.951416 -3.0942955 -5.6778564 -4.0452957c-2.7264404 -0.9651909 -5.591919 -1.447792 -8.596313 -1.447792z" fill-rule="evenodd"/><path stroke="#20124d" stroke-width="1.0" stroke-linejoin="round" stroke-linecap="butt" d="m1480.9725 55.158733c2.673462 0 4.5594482 0.8729286 5.657959 2.6187935c1.0986328 1.7458649 1.6478271 4.712414 1.6478271 8.899651c-1.7072754 0.08516693 -4.466919 0.12774658 -8.278564 0.12774658l-6.3529053 0c0.0793457 -2.526535 0.23815918 -4.7904778 0.47644043 -6.7918396c0.25146484 -2.0155525 0.6220703 -3.1510696 1.1116943 -3.4065628c1.6279297 -0.9651909 3.5405273 -1.4477882 5.737549 -1.4477882zm1.2109375 -14.137245c-4.5528564 0 -9.145508 0.7026062 -13.777832 2.107811c-4.632324 1.3910141 -7.802124 3.0446167 -9.509399 4.9608116c-1.6279297 1.9161911 -3.0772705 5.3227577 -4.3477783 10.219692c-1.2573242 4.88274 -1.8861084 9.93581 -1.8861084 15.159214c0 10.205505 2.5014648 17.84188 7.5043945 22.909142c5.0029297 5.0530777 12.182983 7.5796127 21.540283 7.5796127c9.992554 0 18.119019 -1.5684357 24.379272 -4.7053223l-1.826416 -13.477219c-1.9456787 0.17032623 -3.2890625 0.25549316 -4.0301514 0.25549316c-5.519043 0.44001007 -9.2977295 0.6600189 -11.3359375 0.6600189c-3.652954 0 -6.498535 -0.19871521 -8.536743 -0.59614563c-2.038208 -0.39743042 -3.6065674 -1.2916565 -4.705078 -2.6826706c-1.0853271 -1.3910141 -1.6279297 -3.484642 -1.6279297 -6.2808533l17.311646 0c5.2807617 0 10.687378 -0.17032623 16.219727 -0.5109863c0 -8.289307 -0.5690918 -14.896622 -1.7073975 -19.821945c-1.1381836 -4.9253235 -3.5404053 -8.786095 -7.206543 -11.582321c-3.652954 -2.7962189 -9.138916 -4.194332 -16.458008 -4.194332z" fill-rule="evenodd"/><path stroke="#20124d" stroke-width="1.0" stroke-linejoin="round" stroke-linecap="butt" d="m1510.8479 27.82105l0 16.351511l19.6344 0l0 58.20967l21.957275 0l0 -58.20967l19.6344 0l0 -16.351511z" fill-rule="evenodd"/><path stroke="#20124d" stroke-width="1.0" stroke-linejoin="round" stroke-linecap="butt" d="m1588.9209 14.34383c-2.7662354 0 -5.1485596 1.0077763 -7.1470947 3.0233269c-1.9852295 2.0013561 -2.9779053 4.3930473 -2.9779053 7.1750755c0 2.7962208 0.9926758 5.2021065 2.9779053 7.217659c1.9985352 2.001358 4.3808594 3.0020332 7.1470947 3.0020332c2.7661133 0 5.1219482 -1.0006752 7.067505 -3.0020332c1.9588623 -2.0155525 2.9382324 -4.421438 2.9382324 -7.217659c0 -2.7820282 -0.9793701 -5.1737213 -2.9382324 -7.1750755c-1.9455566 -2.0155506 -4.3013916 -3.0233269 -7.067505 -3.0233269zm-10.502197 27.869957l0 60.168446l20.865356 0l0 -60.168446z" fill-rule="evenodd"/><path stroke="#20124d" stroke-width="1.0" stroke-linejoin="round" stroke-linecap="butt" d="m1648.6836 40.89374c-3.5734863 0 -7.1138916 0.8942261 -10.621216 2.6826706c-3.4941406 1.7884445 -6.577881 4.605957 -9.251343 8.452538l-2.2037354 -9.815163l-16.954224 0l0 60.168446l20.865234 0l0 -41.474922c2.4353027 -1.0361671 4.7911377 -1.6039276 7.067627 -1.7032852l1.4691162 -0.12774277c2.10437 0 3.4874268 0.34775162 4.14917 1.0432587c0.5690918 0.61034393 0.85375977 2.2710457 0.85375977 4.9820976l0 7.856392l0 29.424202l20.845337 0l0 -31.65976c0 -4.6130524 -0.03967285 -7.8421936 -0.119018555 -9.687416c2.2763672 -1.0361671 4.671997 -1.6465111 7.1866455 -1.8310318l1.4691162 -0.12774277c2.1176758 0 3.5007324 0.34775162 4.149292 1.0432587c0.5690918 0.61034393 0.8536377 2.5336342 0.8536377 5.7698708l0 7.068619l0 29.424202l20.865234 0l0 -31.65976c0 -14.123047 -0.65515137 -22.234928 -1.965332 -24.335644c-1.0456543 -1.7458649 -2.9316406 -3.0942955 -5.658081 -4.0452957c-2.7264404 -0.9651909 -5.591919 -1.447792 -8.596313 -1.447792c-3.335205 0 -6.670532 0.7877693 -10.005737 2.3633041c-3.3353271 1.5755386 -6.3066406 4.059494 -8.91394 7.4518623c-0.31762695 -2.0865211 -0.7213135 -3.5272179 -1.2110596 -4.3220787c-1.0588379 -1.7458649 -2.951416 -3.0942955 -5.6778564 -4.0452957c-2.7264404 -0.9651909 -5.591919 -1.447792 -8.596313 -1.447792z" fill-rule="evenodd"/><path stroke="#20124d" stroke-width="1.0" stroke-linejoin="round" stroke-linecap="butt" d="m1735.0476 55.158733c2.673462 0 4.5594482 0.8729286 5.657959 2.6187935c1.0985107 1.7458649 1.6478271 4.712414 1.6478271 8.899651c-1.7073975 0.08516693 -4.466919 0.12774658 -8.278564 0.12774658l-6.3529053 0c0.0793457 -2.526535 0.23815918 -4.7904778 0.47644043 -6.7918396c0.25146484 -2.0155525 0.6220703 -3.1510696 1.1116943 -3.4065628c1.6279297 -0.9651909 3.5404053 -1.4477882 5.737549 -1.4477882zm1.2109375 -14.137245c-4.5528564 0 -9.145508 0.7026062 -13.777832 2.107811c-4.632324 1.3910141 -7.802124 3.0446167 -9.509399 4.9608116c-1.6279297 1.9161911 -3.0772705 5.3227577 -4.3477783 10.219692c-1.2573242 4.88274 -1.8861084 9.93581 -1.8861084 15.159214c0 10.205505 2.5014648 17.84188 7.5043945 22.909142c5.0029297 5.0530777 12.182983 7.5796127 21.540283 7.5796127c9.992554 0 18.119019 -1.5684357 24.379272 -4.7053223l-1.8265381 -13.477219c-1.9455566 0.17032623 -3.2889404 0.25549316 -4.0300293 0.25549316c-5.519165 0.44001007 -9.2977295 0.6600189 -11.3359375 0.6600189c-3.652954 0 -6.498535 -0.19871521 -8.536743 -0.59614563c-2.038208 -0.39743042 -3.6065674 -1.2916565 -4.705078 -2.6826706c-1.0853271 -1.3910141 -1.6279297 -3.484642 -1.6279297 -6.2808533l17.311646 0c5.2807617 0 10.687378 -0.17032623 16.219727 -0.5109863c0 -8.289307 -0.5690918 -14.896622 -1.7073975 -19.821945c-1.1381836 -4.9253235 -3.5404053 -8.786095 -7.206543 -11.582321c-3.652954 -2.7962189 -9.138916 -4.194332 -16.458008 -4.194332z" fill-rule="evenodd"/></g></svg>