<svg version="1.1" viewBox="0.0 0.0 960.0 540.0" fill="none" stroke="none" stroke-linecap="square" stroke-miterlimit="10" xmlns:xlink="http://www.w3.org/1999/xlink" xmlns="http://www.w3.org/2000/svg"><clipPath id="g47ffc2e608f9f49_331.0"><path d="m0 0l960.0 0l0 540.0l-960.0 0l0 -540.0z" clip-rule="nonzero"/></clipPath><g clip-path="url(#g47ffc2e608f9f49_331.0)"><path fill="#000000" fill-opacity="0.0" d="m0 0l960.0 0l0 540.0l-960.0 0z" fill-rule="evenodd"/><path fill="#000000" fill-opacity="0.0" d="m355.52197 178.01292l0 0c20.949005 19.573578 35.42462 44.689514 41.603546 72.18413l-144.4096 30.197357z" fill-rule="evenodd"/><path fill="#000000" fill-opacity="0.0" d="m355.52197 178.01292l0 0c20.949005 19.573578 35.42462 44.689514 41.603546 72.18413" fill-rule="evenodd"/><path stroke="#20124d" stroke-width="24.0" stroke-linejoin="round" stroke-linecap="butt" d="m355.52197 178.01292l0 0c20.949005 19.573578 35.42462 44.689514 41.603546 72.18413" fill-rule="evenodd"/><path fill="#000000" fill-opacity="0.0" d="m273.86624 421.46436l0 0c-66.82831 9.3160095 -131.70212 -26.25116 -157.59882 -86.40378c-25.896698 -60.15262 -6.2276993 -129.58675 47.782173 -168.67728c54.009857 -39.090523 128.6195 -37.89209 181.25018 2.9113617l-92.568115 111.09975z" fill-rule="evenodd"/><path fill="#000000" fill-opacity="0.0" d="m273.86624 421.46436l0 0c-66.82831 9.3160095 -131.70212 -26.25116 -157.59882 -86.40378c-25.896698 -60.15262 -6.2276993 -129.58675 47.782173 -168.67728c54.009857 -39.090523 128.6195 -37.89209 181.25018 2.9113617" fill-rule="evenodd"/><path stroke="#20124d" stroke-width="24.0" stroke-linejoin="round" stroke-linecap="butt" d="m273.86624 421.46436l0 0c-66.82831 9.3160095 -131.70212 -26.25116 -157.59882 -86.40378c-25.896698 -60.15262 -6.2276993 -129.58675 47.782173 -168.67728c54.009857 -39.090523 128.6195 -37.89209 181.25018 2.9113617" fill-rule="evenodd"/><path fill="#000000" fill-opacity="0.0" d="m399.76685 266.20615c3.6600037 35.292328 -6.4523926 70.63312 -28.361542 99.11771l-118.668396 -84.92984z" fill-rule="evenodd"/><path fill="#000000" fill-opacity="0.0" d="m399.76685 266.20615c3.6600037 35.292328 -6.4523926 70.63312 -28.361542 99.11771" fill-rule="evenodd"/><path stroke="#20124d" stroke-width="24.0" stroke-linejoin="round" stroke-linecap="butt" d="m399.76685 266.20615c3.6600037 35.292328 -6.4523926 70.63312 -28.361542 99.11771" fill-rule="evenodd"/><path fill="#000000" fill-opacity="0.0" d="m359.09235 379.34442c-17.676788 17.678894 -39.789642 30.65152 -64.19406 37.65976l-42.161377 -136.61017z" fill-rule="evenodd"/><path fill="#000000" fill-opacity="0.0" d="m359.09235 379.34442c-17.676788 17.678894 -39.789642 30.65152 -64.19406 37.65976" fill-rule="evenodd"/><path stroke="#20124d" stroke-width="24.0" stroke-linejoin="round" stroke-linecap="butt" d="m359.09235 379.34442c-17.676788 17.678894 -39.789642 30.65152 -64.19406 37.65976" fill-rule="evenodd"/><path fill="#000000" fill-opacity="0.0" d="m250.09653 88.95153l0 0c91.72955 -1.2106934 171.9805 60.20893 192.9531 147.6756c20.972595 87.466675 -22.975006 177.45084 -105.66638 216.35538c-82.691376 38.90451 -181.88158 16.263641 -238.49011 -54.437103l153.83774 -118.1467z" fill-rule="evenodd"/><path fill="#000000" fill-opacity="0.0" d="m250.09653 88.95153l0 0c91.72955 -1.2106934 171.9805 60.20893 192.9531 147.6756c20.972595 87.466675 -22.975006 177.45084 -105.66638 216.35538c-82.691376 38.90451 -181.88158 16.263641 -238.49011 -54.437103" fill-rule="evenodd"/><path stroke="#9900ff" stroke-width="24.0" stroke-linejoin="round" stroke-linecap="butt" d="m250.09653 88.95153l0 0c91.72955 -1.2106934 171.9805 60.20893 192.9531 147.6756c20.972595 87.466675 -22.975006 177.45084 -105.66638 216.35538c-82.691376 38.90451 -181.88158 16.263641 -238.49011 -54.437103" fill-rule="evenodd"/><path fill="#000000" fill-opacity="0.0" d="m87.19683 382.25897l0 0c-15.436104 -24.061829 -25.20985 -51.187073 -28.61219 -79.4079l194.14737 -22.451263z" fill-rule="evenodd"/><path fill="#000000" fill-opacity="0.0" d="m87.19683 382.25897l0 0c-15.436104 -24.061829 -25.20985 -51.187073 -28.61219 -79.4079" fill-rule="evenodd"/><path stroke="#9900ff" stroke-width="24.0" stroke-linejoin="round" stroke-linecap="butt" d="m87.19683 382.25897l0 0c-15.436104 -24.061829 -25.20985 -51.187073 -28.61219 -79.4079" fill-rule="evenodd"/><path fill="#000000" fill-opacity="0.0" d="m96.75744 164.97331l0 0c31.599922 -40.955566 78.670815 -67.76839 130.64633 -74.4196l25.330795 189.8349z" fill-rule="evenodd"/><path fill="#000000" fill-opacity="0.0" d="m96.75744 164.97331l0 0c31.599922 -40.955566 78.670815 -67.76839 130.64633 -74.4196" fill-rule="evenodd"/><path stroke="#9900ff" stroke-width="24.0" stroke-linejoin="round" stroke-linecap="butt" d="m96.75744 164.97331l0 0c31.599922 -40.955566 78.670815 -67.76839 130.64633 -74.4196" fill-rule="evenodd"/><path fill="#000000" fill-opacity="0.0" d="m57.28648 284.5811l0 0c-0.76807404 -34.349 7.916836 -68.267456 25.143742 -98.197586l170.30547 94.00624z" fill-rule="evenodd"/><path fill="#000000" fill-opacity="0.0" d="m57.28648 284.5811l0 0c-0.76807404 -34.349 7.916836 -68.267456 25.143742 -98.197586" fill-rule="evenodd"/><path stroke="#9900ff" stroke-width="24.0" stroke-linejoin="round" stroke-linecap="butt" d="m57.28648 284.5811l0 0c-0.76807404 -34.349 7.916836 -68.267456 25.143742 -98.197586" fill-rule="evenodd"/><path fill="#000000" fill-opacity="0.0" d="m110.777664 141.76463l283.90552 0l0 126.3307l-283.90552 0z" fill-rule="evenodd"/><path fill="#20124d" d="m164.16846 280.09274q-7.984375 0 -14.484375 -3.96875q-6.5 -3.984375 -10.390625 -10.671875q-3.890625 -6.703125 -3.890625 -14.92186l0 -42.265625q0 -7.953125 3.890625 -14.640625q3.90625 -6.6875 10.46875 -10.671875q6.578125 -3.984375 14.40625 -3.984375q8.09375 0 14.65625 3.921875q6.578125 3.90625 10.40625 10.546875q3.828125 6.625 3.828125 14.828125l0 6.140625q0 3.296875 -3.421875 3.296875l-14.9375 0q-3.296875 0 -3.296875 -3.296875l0 -5.078125q0 -4.03125 -2.125 -6.484375q-2.109375 -2.46875 -5.109375 -2.46875q-2.671875 0 -4.890625 2.359375q-2.21875 2.359375 -2.21875 5.53125l0 42.265625q0 3.3125 2.15625 5.6093597q2.15625 2.296875 4.953125 2.296875q3.0625 0 5.140625 -2.234375q2.09375 -2.2343597 2.09375 -5.6718597l0 -3.765625l-6.5625 0q-3.4375 0 -3.4375 -3.4375l0 -14.921875q0 -3.4375 3.4375 -3.4375l24.921875 0q3.296875 0 3.296875 3.4375l0 22.125q0 8.218735 -3.890625 14.92186q-3.890625 6.6875 -10.390625 10.671875q-6.5 3.96875 -14.609375 3.96875zm25.894577 -5.015625l16.59375 -91.937485q0.71875 -2.703125 3.375 -2.703125l19.328125 0q2.65625 0 3.375 2.703125l15.875 91.67186q0.828125 3.953125 -3.25 3.953125l-14.796875 0q-2.78125 0 -3.390625 -2.953125l-1.125 -7.453125l-13.375 0l-1.109375 7.421875q-0.5625 2.984375 -3.40625 2.984375l-14.796875 0q-3.296875 0 -3.296875 -3.6875zm26.15625 -26.51561l6.34375 0l-5.0 -34.265625l1.9375 -5.359375l2.203125 5.296875l-5.484375 34.328125zm38.603012 30.20311q-3.296875 0 -3.296875 -3.4375l0.265625 -91.593735q0 -3.296875 3.3125 -3.296875l16.265625 0q1.9375 0 3.171875 1.6875l9.890625 14.34375l9.890625 -14.359375q1.28125 -1.671875 3.171875 -1.671875l16.40625 0q3.296875 0 3.296875 3.296875l0.265625 91.593735q0 3.4375 -3.296875 3.4375l-15.078125 0q-3.296875 0 -3.296875 -3.4375l-0.109375 -59.14061l-11.265625 16.296875l-11.109375 -16.234375l-0.109375 59.07811q0 3.4375 -3.296875 3.4375l-15.078125 0zm71.59723 0q-3.296875 0 -3.296875 -3.4375l0.140625 -91.593735q0 -3.296875 3.296875 -3.296875l42.796875 0q3.296875 0 3.296875 3.4375l0 14.921875q0 3.3125 -3.296875 3.3125l-24.5625 0l0 15.265625l24.5625 0q3.296875 0 3.296875 3.28125l0.140625 15.0625q0 3.3125 -3.296875 3.3125l-24.703125 0l0 17.79686l24.703125 0q3.296875 0 3.296875 3.4375l0 15.203125q0 3.296875 -3.296875 3.296875l-43.078125 0z" fill-rule="nonzero"/><path fill="#000000" fill-opacity="0.0" d="m95.25272 240.80399l314.96063 0l0 153.63779l-314.96063 0z" fill-rule="evenodd"/><path fill="#20124d" d="m165.54295 384.20398q-3.453125 0 -3.453125 -3.609375l0 -76.890625l-15.296875 0q-3.609375 0 -3.609375 -3.625l0.140625 -15.671875q0 -3.453125 3.46875 -3.453125l53.203125 0q3.59375 0 3.59375 3.46875l0 15.671875q0 3.609375 -3.453125 3.609375l-15.4375 0l0.140625 76.890625q0 3.609375 -3.46875 3.609375l-15.828125 0zm42.70317 0q-3.609375 0 -3.609375 -3.609375l0.140625 -96.171875q0 -3.46875 3.46875 -3.46875l15.687515 0q3.46875 0 3.46875 3.46875l0.140625 96.171875q0 3.609375 -3.46875 3.609375l-15.82814 0zm29.259415 0q-3.46875 0 -3.46875 -3.609375l0.28125 -96.171875q0 -3.46875 3.46875 -3.46875l17.078125 0q2.0156097 0 3.3437347 1.765625l10.375 15.046875l10.390625 -15.046875q1.328125 -1.765625 3.328125 -1.765625l17.234375 0q3.453125 0 3.453125 3.46875l0.28125 96.171875q0 3.609375 -3.46875 3.609375l-15.8125 0q-3.46875 0 -3.46875 -3.609375l-0.125 -62.09375l-11.828125 17.109375l-11.640625 -17.03125l-0.125 62.015625q0 3.609375 -3.4687347 3.609375l-15.828125 0zm75.18004 0q-3.46875 0 -3.46875 -3.609375l0.140625 -96.171875q0 -3.46875 3.46875 -3.46875l44.9375 0q3.46875 0 3.46875 3.609375l0 15.671875q0 3.46875 -3.46875 3.46875l-25.78125 0l0 16.03125l25.78125 0q3.46875 0 3.46875 3.453125l0.140625 15.8125q0 3.484375 -3.46875 3.484375l-25.921875 0l0 18.6875l25.921875 0q3.46875 0 3.46875 3.609375l0 15.953125q0 3.46875 -3.46875 3.46875l-45.21875 0z" fill-rule="nonzero"/><path fill="#000000" fill-opacity="0.0" d="m704.62933 88.95153l0 0c91.72955 -1.2106934 171.98047 60.20893 192.95312 147.6756c20.972595 87.466675 -22.975037 177.45084 -105.66638 216.35538c-82.69141 38.90451 -181.88159 16.263641 -238.49011 -54.437103l153.8377 -118.1467z" fill-rule="evenodd"/><path fill="#000000" fill-opacity="0.0" d="m704.62933 88.95153l0 0c91.72955 -1.2106934 171.98047 60.20893 192.95312 147.6756c20.972595 87.466675 -22.975037 177.45084 -105.66638 216.35538c-82.69141 38.90451 -181.88159 16.263641 -238.49011 -54.437103" fill-rule="evenodd"/><path stroke="#20124d" stroke-width="24.0" stroke-linejoin="round" stroke-linecap="butt" d="m704.62933 88.95153l0 0c91.72955 -1.2106934 171.98047 60.20893 192.95312 147.6756c20.972595 87.466675 -22.975037 177.45084 -105.66638 216.35538c-82.69141 38.90451 -181.88159 16.263641 -238.49011 -54.437103" fill-rule="evenodd"/><path fill="#000000" fill-opacity="0.0" d="m541.7296 382.25897l0 0c-15.436096 -24.061829 -25.209839 -51.187073 -28.612183 -79.4079l194.1474 -22.451263z" fill-rule="evenodd"/><path fill="#000000" fill-opacity="0.0" d="m541.7296 382.25897l0 0c-15.436096 -24.061829 -25.209839 -51.187073 -28.612183 -79.4079" fill-rule="evenodd"/><path stroke="#20124d" stroke-width="24.0" stroke-linejoin="round" stroke-linecap="butt" d="m541.7296 382.25897l0 0c-15.436096 -24.061829 -25.209839 -51.187073 -28.612183 -79.4079" fill-rule="evenodd"/><path fill="#000000" fill-opacity="0.0" d="m810.05475 178.01292l0 0c20.949036 19.573578 35.424683 44.689514 41.603577 72.18413l-144.4096 30.197357z" fill-rule="evenodd"/><path fill="#000000" fill-opacity="0.0" d="m810.05475 178.01292l0 0c20.949036 19.573578 35.424683 44.689514 41.603577 72.18413" fill-rule="evenodd"/><path stroke="#9900ff" stroke-width="24.0" stroke-linejoin="round" stroke-linecap="butt" d="m810.05475 178.01292l0 0c20.949036 19.573578 35.424683 44.689514 41.603577 72.18413" fill-rule="evenodd"/><path fill="#000000" fill-opacity="0.0" d="m728.39905 421.46436l0 0c-66.82831 9.3160095 -131.70215 -26.25116 -157.59882 -86.40378c-25.896729 -60.15262 -6.227722 -129.58675 47.782166 -168.67728c54.009888 -39.090523 128.6195 -37.89209 181.25018 2.9113617l-92.568115 111.09975z" fill-rule="evenodd"/><path fill="#000000" fill-opacity="0.0" d="m728.39905 421.46436l0 0c-66.82831 9.3160095 -131.70215 -26.25116 -157.59882 -86.40378c-25.896729 -60.15262 -6.227722 -129.58675 47.782166 -168.67728c54.009888 -39.090523 128.6195 -37.89209 181.25018 2.9113617" fill-rule="evenodd"/><path stroke="#9900ff" stroke-width="24.0" stroke-linejoin="round" stroke-linecap="butt" d="m728.39905 421.46436l0 0c-66.82831 9.3160095 -131.70215 -26.25116 -157.59882 -86.40378c-25.896729 -60.15262 -6.227722 -129.58675 47.782166 -168.67728c54.009888 -39.090523 128.6195 -37.89209 181.25018 2.9113617" fill-rule="evenodd"/><path fill="#000000" fill-opacity="0.0" d="m551.2902 164.97331l0 0c31.599976 -40.955566 78.67084 -67.76839 130.64636 -74.4196l25.33081 189.8349z" fill-rule="evenodd"/><path fill="#000000" fill-opacity="0.0" d="m551.2902 164.97331l0 0c31.599976 -40.955566 78.67084 -67.76839 130.64636 -74.4196" fill-rule="evenodd"/><path stroke="#20124d" stroke-width="24.0" stroke-linejoin="round" stroke-linecap="butt" d="m551.2902 164.97331l0 0c31.599976 -40.955566 78.67084 -67.76839 130.64636 -74.4196" fill-rule="evenodd"/><path fill="#000000" fill-opacity="0.0" d="m511.81927 284.5811l0 0c-0.7680664 -34.349 7.91687 -68.267456 25.143738 -98.197586l170.30548 94.00624z" fill-rule="evenodd"/><path fill="#000000" fill-opacity="0.0" d="m511.81927 284.5811l0 0c-0.7680664 -34.349 7.91687 -68.267456 25.143738 -98.197586" fill-rule="evenodd"/><path stroke="#20124d" stroke-width="24.0" stroke-linejoin="round" stroke-linecap="butt" d="m511.81927 284.5811l0 0c-0.7680664 -34.349 7.91687 -68.267456 25.143738 -98.197586" fill-rule="evenodd"/><path fill="#000000" fill-opacity="0.0" d="m854.2997 266.20615c3.6599731 35.292328 -6.4524536 70.63312 -28.361572 99.11771l-118.668396 -84.92984z" fill-rule="evenodd"/><path fill="#000000" fill-opacity="0.0" d="m854.2997 266.20615c3.6599731 35.292328 -6.4524536 70.63312 -28.361572 99.11771" fill-rule="evenodd"/><path stroke="#9900ff" stroke-width="24.0" stroke-linejoin="round" stroke-linecap="butt" d="m854.2997 266.20615c3.6599731 35.292328 -6.4524536 70.63312 -28.361572 99.11771" fill-rule="evenodd"/><path fill="#000000" fill-opacity="0.0" d="m813.6252 379.34442c-17.676819 17.678894 -39.789673 30.65152 -64.19409 37.65976l-42.161377 -136.61017z" fill-rule="evenodd"/><path fill="#000000" fill-opacity="0.0" d="m813.6252 379.34442c-17.676819 17.678894 -39.789673 30.65152 -64.19409 37.65976" fill-rule="evenodd"/><path stroke="#9900ff" stroke-width="24.0" stroke-linejoin="round" stroke-linecap="butt" d="m813.6252 379.34442c-17.676819 17.678894 -39.789673 30.65152 -64.19409 37.65976" fill-rule="evenodd"/><path fill="#000000" fill-opacity="0.0" d="m565.3105 141.76463l283.90552 0l0 126.3307l-283.90552 0z" fill-rule="evenodd"/><path fill="#9900ff" d="m618.70123 280.09274q-7.984375 0 -14.484375 -3.96875q-6.5 -3.984375 -10.390625 -10.671875q-3.890625 -6.703125 -3.890625 -14.92186l0 -42.265625q0 -7.953125 3.890625 -14.640625q3.90625 -6.6875 10.46875 -10.671875q6.578125 -3.984375 14.40625 -3.984375q8.09375 0 14.65625 3.921875q6.578125 3.90625 10.40625 10.546875q3.828125 6.625 3.828125 14.828125l0 6.140625q0 3.296875 -3.421875 3.296875l-14.9375 0q-3.296875 0 -3.296875 -3.296875l0 -5.078125q0 -4.03125 -2.125 -6.484375q-2.109375 -2.46875 -5.109375 -2.46875q-2.671875 0 -4.890625 2.359375q-2.21875 2.359375 -2.21875 5.53125l0 42.265625q0 3.3125 2.15625 5.6093597q2.15625 2.296875 4.953125 2.296875q3.0625 0 5.140625 -2.234375q2.09375 -2.2343597 2.09375 -5.6718597l0 -3.765625l-6.5625 0q-3.4375 0 -3.4375 -3.4375l0 -14.921875q0 -3.4375 3.4375 -3.4375l24.921875 0q3.296875 0 3.296875 3.4375l0 22.125q0 8.218735 -3.890625 14.92186q-3.890625 6.6875 -10.390625 10.671875q-6.5 3.96875 -14.609375 3.96875zm25.894592 -5.015625l16.59375 -91.937485q0.71875 -2.703125 3.375 -2.703125l19.328125 0q2.65625 0 3.375 2.703125l15.875 91.67186q0.828125 3.953125 -3.25 3.953125l-14.796875 0q-2.78125 0 -3.390625 -2.953125l-1.125 -7.453125l-13.375 0l-1.109375 7.421875q-0.5625 2.984375 -3.40625 2.984375l-14.796875 0q-3.296875 0 -3.296875 -3.6875zm26.15625 -26.51561l6.34375 0l-5.0 -34.265625l1.9375 -5.359375l2.203125 5.296875l-5.484375 34.328125zm38.603027 30.20311q-3.296875 0 -3.296875 -3.4375l0.265625 -91.593735q0 -3.296875 3.3125 -3.296875l16.265625 0q1.9375 0 3.171875 1.6875l9.890625 14.34375l9.890625 -14.359375q1.28125 -1.671875 3.171875 -1.671875l16.40625 0q3.296875 0 3.296875 3.296875l0.265625 91.593735q0 3.4375 -3.296875 3.4375l-15.078125 0q-3.296875 0 -3.296875 -3.4375l-0.109375 -59.14061l-11.265625 16.296875l-11.109375 -16.234375l-0.109375 59.07811q0 3.4375 -3.296875 3.4375l-15.078125 0zm71.59723 0q-3.296875 0 -3.296875 -3.4375l0.140625 -91.593735q0 -3.296875 3.296875 -3.296875l42.796875 0q3.296875 0 3.296875 3.4375l0 14.921875q0 3.3125 -3.296875 3.3125l-24.5625 0l0 15.265625l24.5625 0q3.296875 0 3.296875 3.28125l0.140625 15.0625q0 3.3125 -3.296875 3.3125l-24.703125 0l0 17.79686l24.703125 0q3.296875 0 3.296875 3.4375l0 15.203125q0 3.296875 -3.296875 3.296875l-43.078125 0z" fill-rule="nonzero"/><path fill="#000000" fill-opacity="0.0" d="m549.7855 240.80399l314.96063 0l0 153.63779l-314.96063 0z" fill-rule="evenodd"/><path fill="#9900ff" d="m620.07574 384.20398q-3.453125 0 -3.453125 -3.609375l0 -76.890625l-15.296875 0q-3.609375 0 -3.609375 -3.625l0.140625 -15.671875q0 -3.453125 3.46875 -3.453125l53.203125 0q3.59375 0 3.59375 3.46875l0 15.671875q0 3.609375 -3.453125 3.609375l-15.4375 0l0.140625 76.890625q0 3.609375 -3.46875 3.609375l-15.828125 0zm42.703186 0q-3.609375 0 -3.609375 -3.609375l0.140625 -96.171875q0 -3.46875 3.46875 -3.46875l15.6875 0q3.46875 0 3.46875 3.46875l0.140625 96.171875q0 3.609375 -3.46875 3.609375l-15.828125 0zm29.2594 0q-3.46875 0 -3.46875 -3.609375l0.28125 -96.171875q0 -3.46875 3.46875 -3.46875l17.078125 0q2.015625 0 3.34375 1.765625l10.375 15.046875l10.390625 -15.046875q1.328125 -1.765625 3.328125 -1.765625l17.234375 0q3.453125 0 3.453125 3.46875l0.28125 96.171875q0 3.609375 -3.46875 3.609375l-15.8125 0q-3.46875 0 -3.46875 -3.609375l-0.125 -62.09375l-11.828125 17.109375l-11.640625 -17.03125l-0.125 62.015625q0 3.609375 -3.46875 3.609375l-15.828125 0zm75.18005 0q-3.46875 0 -3.46875 -3.609375l0.140625 -96.171875q0 -3.46875 3.46875 -3.46875l44.9375 0q3.46875 0 3.46875 3.609375l0 15.671875q0 3.46875 -3.46875 3.46875l-25.78125 0l0 16.03125l25.78125 0q3.46875 0 3.46875 3.453125l0.140625 15.8125q0 3.484375 -3.46875 3.484375l-25.921875 0l0 18.6875l25.921875 0q3.46875 0 3.46875 3.609375l0 15.953125q0 3.46875 -3.46875 3.46875l-45.21875 0z" fill-rule="nonzero"/><path fill="#000000" fill-opacity="0.0" d="m-448.06555 0.017143764l0 0c91.72952 -1.2106925 171.98047 60.208935 192.95308 147.6756c20.97261 87.466675 -22.97499 177.45084 -105.66637 216.35538c-82.69141 38.90451 -181.88162 16.263641 -238.49014 -54.437103l153.83777 -118.1467z" fill-rule="evenodd"/><path fill="#000000" fill-opacity="0.0" d="m-448.06555 0.017143764l0 0c91.72952 -1.2106925 171.98047 60.208935 192.95308 147.6756c20.97261 87.466675 -22.97499 177.45084 -105.66637 216.35538c-82.69141 38.90451 -181.88162 16.263641 -238.49014 -54.437103" fill-rule="evenodd"/><path stroke="#4285f4" stroke-width="24.0" stroke-linejoin="round" stroke-linecap="butt" d="m-448.06555 0.017143764l0 0c91.72952 -1.2106925 171.98047 60.208935 192.95308 147.6756c20.97261 87.466675 -22.97499 177.45084 -105.66637 216.35538c-82.69141 38.90451 -181.88162 16.263641 -238.49014 -54.437103" fill-rule="evenodd"/><path fill="#000000" fill-opacity="0.0" d="m-610.9653 293.3246l0 0c-15.436096 -24.061798 -25.209839 -51.187073 -28.612183 -79.4079l194.14737 -22.451248z" fill-rule="evenodd"/><path fill="#000000" fill-opacity="0.0" d="m-610.9653 293.3246l0 0c-15.436096 -24.061798 -25.209839 -51.187073 -28.612183 -79.4079" fill-rule="evenodd"/><path stroke="#4285f4" stroke-width="24.0" stroke-linejoin="round" stroke-linecap="butt" d="m-610.9653 293.3246l0 0c-15.436096 -24.061798 -25.209839 -51.187073 -28.612183 -79.4079" fill-rule="evenodd"/><path fill="#000000" fill-opacity="0.0" d="m-601.40466 76.038925l0 0c31.599915 -40.955563 78.67084 -67.76839 130.64633 -74.41959l25.33078 189.83492z" fill-rule="evenodd"/><path fill="#000000" fill-opacity="0.0" d="m-601.40466 76.038925l0 0c31.599915 -40.955563 78.67084 -67.76839 130.64633 -74.41959" fill-rule="evenodd"/><path stroke="#4285f4" stroke-width="24.0" stroke-linejoin="round" stroke-linecap="butt" d="m-601.40466 76.038925l0 0c31.599915 -40.955563 78.67084 -67.76839 130.64633 -74.41959" fill-rule="evenodd"/><path fill="#000000" fill-opacity="0.0" d="m-640.8756 195.64668l0 0c-0.7680664 -34.348984 7.916809 -68.26744 25.143738 -98.19757l170.30548 94.00624z" fill-rule="evenodd"/><path fill="#000000" fill-opacity="0.0" d="m-640.8756 195.64668l0 0c-0.7680664 -34.348984 7.916809 -68.26744 25.143738 -98.19757" fill-rule="evenodd"/><path stroke="#4285f4" stroke-width="24.0" stroke-linejoin="round" stroke-linecap="butt" d="m-640.8756 195.64668l0 0c-0.7680664 -34.348984 7.916809 -68.26744 25.143738 -98.19757" fill-rule="evenodd"/><path fill="#000000" fill-opacity="0.0" d="m-328.45193 104.39579c19.646362 24.564964 30.447083 54.642616 30.76242 85.66668l-147.75665 1.3975677z" fill-rule="evenodd"/><path fill="#000000" fill-opacity="0.0" d="m-328.45193 104.39579c19.646362 24.564964 30.447083 54.642616 30.76242 85.66668" fill-rule="evenodd"/><path stroke="#20124d" stroke-width="24.0" stroke-linejoin="round" stroke-linecap="butt" d="m-328.45193 104.39579c19.646362 24.564964 30.447083 54.642616 30.76242 85.66668" fill-rule="evenodd"/><path fill="#000000" fill-opacity="0.0" d="m-424.29587 332.52997l0 0c-68.75238 9.5842285 -135.14224 -28.321136 -159.50937 -91.07205c-24.367188 -62.7509 -0.13122559 -133.40137 58.229675 -169.746c58.36087 -36.344627 135.08624 -28.568485 184.34167 18.683083l-104.19653 101.06503z" fill-rule="evenodd"/><path fill="#000000" fill-opacity="0.0" d="m-424.29587 332.52997l0 0c-68.75238 9.5842285 -135.14224 -28.321136 -159.50937 -91.07205c-24.367188 -62.7509 -0.13122559 -133.40137 58.229675 -169.746c58.36087 -36.344627 135.08624 -28.568485 184.34167 18.683083" fill-rule="evenodd"/><path stroke="#20124d" stroke-width="24.0" stroke-linejoin="round" stroke-linecap="butt" d="m-424.29587 332.52997l0 0c-68.75238 9.5842285 -135.14224 -28.321136 -159.50937 -91.07205c-24.367188 -62.7509 -0.13122559 -133.40137 58.229675 -169.746c58.36087 -36.344627 135.08624 -28.568485 184.34167 18.683083" fill-rule="evenodd"/><path fill="#000000" fill-opacity="0.0" d="m-298.48624 206.49896l0 0c-3.7337952 33.944702 -19.972504 65.469635 -45.763306 88.84244l-101.17563 -103.88176z" fill-rule="evenodd"/><path fill="#000000" fill-opacity="0.0" d="m-298.48624 206.49896l0 0c-3.7337952 33.944702 -19.972504 65.469635 -45.763306 88.84244" fill-rule="evenodd"/><path stroke="#20124d" stroke-width="24.0" stroke-linejoin="round" stroke-linecap="butt" d="m-298.48624 206.49896l0 0c-3.7337952 33.944702 -19.972504 65.469635 -45.763306 88.84244" fill-rule="evenodd"/><path fill="#000000" fill-opacity="0.0" d="m-358.07007 306.42004l0 0c-13.66629 9.66275 -28.953735 16.986084 -45.193756 21.64975l-42.161346 -136.61015z" fill-rule="evenodd"/><path fill="#000000" fill-opacity="0.0" d="m-358.07007 306.42004l0 0c-13.66629 9.66275 -28.953735 16.986084 -45.193756 21.64975" fill-rule="evenodd"/><path stroke="#20124d" stroke-width="24.0" stroke-linejoin="round" stroke-linecap="butt" d="m-358.07007 306.42004l0 0c-13.66629 9.66275 -28.953735 16.986084 -45.193756 21.64975" fill-rule="evenodd"/><path fill="#000000" fill-opacity="0.0" d="m-587.38446 65.12158l283.90555 0l0 126.3307l-283.90555 0z" fill-rule="evenodd"/><path fill="#20124d" d="m-533.99365 203.4497q-7.984375 0 -14.484375 -3.96875q-6.5 -3.984375 -10.390625 -10.671875q-3.890625 -6.703125 -3.890625 -14.921875l0 -42.265625q0 -7.953125 3.890625 -14.640625q3.90625 -6.6875 10.46875 -10.671875q6.578125 -3.984375 14.40625 -3.984375q8.09375 0 14.65625 3.921875q6.578125 3.90625 10.40625 10.546875q3.828125 6.625 3.828125 14.828125l0 6.140625q0 3.296875 -3.421875 3.296875l-14.9375 0q-3.296875 0 -3.296875 -3.296875l0 -5.078125q0 -4.03125 -2.125 -6.484375q-2.109375 -2.46875 -5.109375 -2.46875q-2.671875 0 -4.890625 2.359375q-2.21875 2.359375 -2.21875 5.53125l0 42.265625q0 3.3125 2.15625 5.609375q2.15625 2.296875 4.953125 2.296875q3.0625 0 5.140625 -2.234375q2.09375 -2.234375 2.09375 -5.671875l0 -3.765625l-6.5625 0q-3.4375 0 -3.4375 -3.4375l0 -14.921875q0 -3.4375 3.4375 -3.4375l24.921875 0q3.296875 0 3.296875 3.4375l0 22.125q0 8.21875 -3.890625 14.921875q-3.890625 6.6875 -10.390625 10.671875q-6.5 3.96875 -14.609375 3.96875zm25.894592 -5.015625l16.59375 -91.9375q0.71875 -2.703125 3.375 -2.703125l19.328125 0q2.65625 0 3.375 2.703125l15.875 91.671875q0.828125 3.953125 -3.25 3.953125l-14.796875 0q-2.78125 0 -3.390625 -2.953125l-1.125 -7.453125l-13.375 0l-1.109375 7.421875q-0.5625 2.984375 -3.40625 2.984375l-14.796875 0q-3.296875 0 -3.296875 -3.6875zm26.15625 -26.515625l6.34375 0l-5.0 -34.265625l1.9375 -5.359375l2.203125 5.296875l-5.484375 34.328125zm38.602997 30.203125q-3.296875 0 -3.296875 -3.4375l0.265625 -91.59375q0 -3.296875 3.3125 -3.296875l16.265625 0q1.9375 0 3.171875 1.6875l9.890625 14.34375l9.890625 -14.359375q1.28125 -1.671875 3.171875 -1.671875l16.40625 0q3.296875 0 3.296875 3.296875l0.265625 91.59375q0 3.4375 -3.296875 3.4375l-15.078125 0q-3.296875 0 -3.296875 -3.4375l-0.109375 -59.140625l-11.265625 16.296875l-11.109375 -16.234375l-0.109375 59.078125q0 3.4375 -3.296875 3.4375l-15.078125 0zm71.59726 0q-3.296875 0 -3.296875 -3.4375l0.140625 -91.59375q0 -3.296875 3.296875 -3.296875l42.796875 0q3.296875 0 3.296875 3.4375l0 14.921875q0 3.3125 -3.296875 3.3125l-24.5625 0l0 15.265625l24.5625 0q3.296875 0 3.296875 3.28125l0.140625 15.0625q0 3.3125 -3.296875 3.3125l-24.703125 0l0 17.796875l24.703125 0q3.296875 0 3.296875 3.4375l0 15.203125q0 3.296875 -3.296875 3.296875l-43.078125 0z" fill-rule="nonzero"/><path fill="#000000" fill-opacity="0.0" d="m-602.90936 164.16095l314.96063 0l0 153.63779l-314.96063 0z" fill-rule="evenodd"/><path fill="#20124d" d="m-532.61914 307.56094q-3.453125 0 -3.453125 -3.609375l0 -76.890625l-15.296875 0q-3.609375 0 -3.609375 -3.625l0.140625 -15.671875q0 -3.453125 3.46875 -3.453125l53.203125 0q3.59375 0 3.59375 3.46875l0 15.671875q0 3.609375 -3.453125 3.609375l-15.4375 0l0.140625 76.890625q0 3.609375 -3.46875 3.609375l-15.828125 0zm42.703186 0q-3.609375 0 -3.609375 -3.609375l0.140625 -96.171875q0 -3.46875 3.46875 -3.46875l15.6875 0q3.46875 0 3.46875 3.46875l0.140625 96.171875q0 3.609375 -3.46875 3.609375l-15.828125 0zm29.2594 0q-3.46875 0 -3.46875 -3.609375l0.28125 -96.171875q0 -3.46875 3.46875 -3.46875l17.078125 0q2.015625 0 3.34375 1.765625l10.375 15.046875l10.390625 -15.046875q1.328125 -1.765625 3.328125 -1.765625l17.234375 0q3.453125 0 3.453125 3.46875l0.28125 96.171875q0 3.609375 -3.46875 3.609375l-15.8125 0q-3.46875 0 -3.46875 -3.609375l-0.125 -62.09375l-11.828125 17.109375l-11.640625 -17.03125l-0.125 62.015625q0 3.609375 -3.46875 3.609375l-15.828125 0zm75.18005 0q-3.46875 0 -3.46875 -3.609375l0.140625 -96.171875q0 -3.46875 3.46875 -3.46875l44.9375 0q3.46875 0 3.46875 3.609375l0 15.671875q0 3.46875 -3.46875 3.46875l-25.78125 0l0 16.03125l25.78125 0q3.46875 0 3.46875 3.453125l0.140625 15.8125q0 3.484375 -3.46875 3.484375l-25.921875 0l0 18.6875l25.921875 0q3.46875 0 3.46875 3.609375l0 15.953125q0 3.46875 -3.46875 3.46875l-45.21875 0z" fill-rule="nonzero"/><path fill="#000000" fill-opacity="0.0" d="m-587.38446 52.830246l283.90555 0l0 126.3307l-283.90555 0z" fill-rule="evenodd"/><path fill="#6fa8dc" d="m-533.99365 191.15837q-7.984375 0 -14.484375 -3.96875q-6.5 -3.984375 -10.390625 -10.671875q-3.890625 -6.703125 -3.890625 -14.921875l0 -42.265625q0 -7.953125 3.890625 -14.640625q3.90625 -6.6875 10.46875 -10.671875q6.578125 -3.984375 14.40625 -3.984375q8.09375 0 14.65625 3.921875q6.578125 3.90625 10.40625 10.546875q3.828125 6.625 3.828125 14.828125l0 6.140625q0 3.296875 -3.421875 3.296875l-14.9375 0q-3.296875 0 -3.296875 -3.296875l0 -5.078125q0 -4.03125 -2.125 -6.484375q-2.109375 -2.46875 -5.109375 -2.46875q-2.671875 0 -4.890625 2.359375q-2.21875 2.359375 -2.21875 5.53125l0 42.265625q0 3.3125 2.15625 5.609375q2.15625 2.296875 4.953125 2.296875q3.0625 0 5.140625 -2.234375q2.09375 -2.234375 2.09375 -5.671875l0 -3.765625l-6.5625 0q-3.4375 0 -3.4375 -3.4375l0 -14.921875q0 -3.4375 3.4375 -3.4375l24.921875 0q3.296875 0 3.296875 3.4375l0 22.125q0 8.21875 -3.890625 14.921875q-3.890625 6.6875 -10.390625 10.671875q-6.5 3.96875 -14.609375 3.96875zm25.894592 -5.015625l16.59375 -91.9375q0.71875 -2.703125 3.375 -2.703125l19.328125 0q2.65625 0 3.375 2.703125l15.875 91.671875q0.828125 3.953125 -3.25 3.953125l-14.796875 0q-2.78125 0 -3.390625 -2.953125l-1.125 -7.453125l-13.375 0l-1.109375 7.421875q-0.5625 2.984375 -3.40625 2.984375l-14.796875 0q-3.296875 0 -3.296875 -3.6875zm26.15625 -26.515625l6.34375 0l-5.0 -34.265625l1.9375 -5.359375l2.203125 5.296875l-5.484375 34.328125zm38.602997 30.203125q-3.296875 0 -3.296875 -3.4375l0.265625 -91.59375q0 -3.296875 3.3125 -3.296875l16.265625 0q1.9375 0 3.171875 1.6875l9.890625 14.34375l9.890625 -14.359375q1.28125 -1.671875 3.171875 -1.671875l16.40625 0q3.296875 0 3.296875 3.296875l0.265625 91.59375q0 3.4375 -3.296875 3.4375l-15.078125 0q-3.296875 0 -3.296875 -3.4375l-0.109375 -59.140625l-11.265625 16.296875l-11.109375 -16.234375l-0.109375 59.078125q0 3.4375 -3.296875 3.4375l-15.078125 0zm71.59726 0q-3.296875 0 -3.296875 -3.4375l0.140625 -91.59375q0 -3.296875 3.296875 -3.296875l42.796875 0q3.296875 0 3.296875 3.4375l0 14.921875q0 3.3125 -3.296875 3.3125l-24.5625 0l0 15.265625l24.5625 0q3.296875 0 3.296875 3.28125l0.140625 15.0625q0 3.3125 -3.296875 3.3125l-24.703125 0l0 17.796875l24.703125 0q3.296875 0 3.296875 3.4375l0 15.203125q0 3.296875 -3.296875 3.296875l-43.078125 0z" fill-rule="nonzero"/><path fill="#000000" fill-opacity="0.0" d="m-602.90936 151.86961l314.96063 0l0 153.6378l-314.96063 0z" fill-rule="evenodd"/><path fill="#6fa8dc" d="m-532.61914 295.2696q-3.453125 0 -3.453125 -3.609375l0 -76.89061l-15.296875 0q-3.609375 0 -3.609375 -3.625l0.140625 -15.671875q0 -3.453125 3.46875 -3.453125l53.203125 0q3.59375 0 3.59375 3.46875l0 15.671875q0 3.609375 -3.453125 3.609375l-15.4375 0l0.140625 76.89061q0 3.609375 -3.46875 3.609375l-15.828125 0zm42.703186 0q-3.609375 0 -3.609375 -3.609375l0.140625 -96.17186q0 -3.46875 3.46875 -3.46875l15.6875 0q3.46875 0 3.46875 3.46875l0.140625 96.17186q0 3.609375 -3.46875 3.609375l-15.828125 0zm29.2594 0q-3.46875 0 -3.46875 -3.609375l0.28125 -96.17186q0 -3.46875 3.46875 -3.46875l17.078125 0q2.015625 0 3.34375 1.765625l10.375 15.046875l10.390625 -15.046875q1.328125 -1.765625 3.328125 -1.765625l17.234375 0q3.453125 0 3.453125 3.46875l0.28125 96.17186q0 3.609375 -3.46875 3.609375l-15.8125 0q-3.46875 0 -3.46875 -3.609375l-0.125 -62.093735l-11.828125 17.109375l-11.640625 -17.03125l-0.125 62.01561q0 3.609375 -3.46875 3.609375l-15.828125 0zm75.18005 0q-3.46875 0 -3.46875 -3.609375l0.140625 -96.17186q0 -3.46875 3.46875 -3.46875l44.9375 0q3.46875 0 3.46875 3.609375l0 15.671875q0 3.46875 -3.46875 3.46875l-25.78125 0l0 16.03125l25.78125 0q3.46875 0 3.46875 3.453125l0.140625 15.8125q0 3.484375 -3.46875 3.484375l-25.921875 0l0 18.687485l25.921875 0q3.46875 0 3.46875 3.609375l0 15.953125q0 3.46875 -3.46875 3.46875l-45.21875 0z" fill-rule="nonzero"/><path fill="#000000" fill-opacity="0.0" d="m39.757736 -1028.9055l0 0c91.72859 -1.2105713 171.97876 60.206665 192.9515 147.6701c20.972733 87.46338 -22.973831 177.44452 -105.664024 216.34833c-82.6902 38.903748 -181.87955 16.26471 -238.48839 -54.43274l153.83516 -118.144714z" fill-rule="evenodd"/><path fill="#000000" fill-opacity="0.0" d="m39.757736 -1028.9055l0 0c91.72859 -1.2105713 171.97876 60.206665 192.9515 147.6701c20.972733 87.46338 -22.973831 177.44452 -105.664024 216.34833c-82.6902 38.903748 -181.87955 16.26471 -238.48839 -54.43274" fill-rule="evenodd"/><path stroke="#20124d" stroke-width="24.0" stroke-linejoin="round" stroke-linecap="butt" d="m39.757736 -1028.9055l0 0c91.72859 -1.2105713 171.97876 60.206665 192.9515 147.6701c20.972733 87.46338 -22.973831 177.44452 -105.664024 216.34833c-82.6902 38.903748 -181.87955 16.26471 -238.48839 -54.43274" fill-rule="evenodd"/><path fill="#000000" fill-opacity="0.0" d="m-123.13969 -735.6057c-15.436577 -24.06134 -25.210655 -51.18622 -28.613136 -79.40668l194.14595 -22.45105z" fill-rule="evenodd"/><path fill="#000000" fill-opacity="0.0" d="m-123.13969 -735.6057c-15.436577 -24.06134 -25.210655 -51.18622 -28.613136 -79.40668" fill-rule="evenodd"/><path stroke="#20124d" stroke-width="24.0" stroke-linejoin="round" stroke-linecap="butt" d="m-123.13969 -735.6057c-15.436577 -24.06134 -25.210655 -51.18622 -28.613136 -79.40668" fill-rule="evenodd"/><path fill="#000000" fill-opacity="0.0" d="m159.38368 -924.5298l0 0c19.648743 24.565369 30.450851 54.644043 30.766266 85.66925l-147.76411 1.397644z" fill-rule="evenodd"/><path fill="#000000" fill-opacity="0.0" d="m159.38368 -924.5298l0 0c19.648743 24.565369 30.450851 54.644043 30.766266 85.66925" fill-rule="evenodd"/><path stroke="#9900ff" stroke-width="24.0" stroke-linejoin="round" stroke-linecap="butt" d="m159.38368 -924.5298l0 0c19.648743 24.565369 30.450851 54.644043 30.766266 85.66925" fill-rule="evenodd"/><path fill="#000000" fill-opacity="0.0" d="m63.528713 -696.39264l0 0c-68.75237 9.5842285 -135.14224 -28.321167 -159.5094 -91.07208c-24.367157 -62.750854 -0.13121796 -133.40137 58.22967 -169.74597c58.360886 -36.344604 135.08627 -28.568481 184.3417 18.683105l-104.19655 101.065z" fill-rule="evenodd"/><path fill="#000000" fill-opacity="0.0" d="m63.528713 -696.39264l0 0c-68.75237 9.5842285 -135.14224 -28.321167 -159.5094 -91.07208c-24.367157 -62.750854 -0.13121796 -133.40137 58.22967 -169.74597c58.360886 -36.344604 135.08627 -28.568481 184.3417 18.683105" fill-rule="evenodd"/><path stroke="#9900ff" stroke-width="24.0" stroke-linejoin="round" stroke-linecap="butt" d="m63.528713 -696.39264l0 0c-68.75237 9.5842285 -135.14224 -28.321167 -159.5094 -91.07208c-24.367157 -62.750854 -0.13121796 -133.40137 58.22967 -169.74597c58.360886 -36.344604 135.08627 -28.568481 184.3417 18.683105" fill-rule="evenodd"/><path fill="#000000" fill-opacity="0.0" d="m-113.58421 -952.8777l0 0c31.598763 -40.958496 78.66916 -67.7735 130.64449 -74.425415l25.331444 189.83984z" fill-rule="evenodd"/><path fill="#000000" fill-opacity="0.0" d="m-113.58421 -952.8777l0 0c31.598763 -40.958496 78.66916 -67.7735 130.64449 -74.425415" fill-rule="evenodd"/><path stroke="#20124d" stroke-width="24.0" stroke-linejoin="round" stroke-linecap="butt" d="m-113.58421 -952.8777l0 0c31.598763 -40.958496 78.66916 -67.7735 130.64449 -74.425415" fill-rule="evenodd"/><path fill="#000000" fill-opacity="0.0" d="m-153.05104 -833.27594l0 0c-0.7680664 -34.348938 7.9168396 -68.267456 25.143745 -98.19757l170.30547 94.006226z" fill-rule="evenodd"/><path fill="#000000" fill-opacity="0.0" d="m-153.05104 -833.27594l0 0c-0.7680664 -34.348938 7.9168396 -68.267456 25.143745 -98.19757" fill-rule="evenodd"/><path stroke="#20124d" stroke-width="24.0" stroke-linejoin="round" stroke-linecap="butt" d="m-153.05104 -833.27594l0 0c-0.7680664 -34.348938 7.9168396 -68.267456 25.143745 -98.19757" fill-rule="evenodd"/><path fill="#000000" fill-opacity="0.0" d="m189.33835 -822.42365l0 0c-3.7338104 33.944702 -19.972519 65.469604 -45.763306 88.84247l-101.175644 -103.881775z" fill-rule="evenodd"/><path fill="#000000" fill-opacity="0.0" d="m189.33835 -822.42365l0 0c-3.7338104 33.944702 -19.972519 65.469604 -45.763306 88.84247" fill-rule="evenodd"/><path stroke="#9900ff" stroke-width="24.0" stroke-linejoin="round" stroke-linecap="butt" d="m189.33835 -822.42365l0 0c-3.7338104 33.944702 -19.972519 65.469604 -45.763306 88.84247" fill-rule="evenodd"/><path fill="#000000" fill-opacity="0.0" d="m129.75452 -722.50256l0 0c-13.666313 9.66272 -28.953758 16.986084 -45.193764 21.64978l-42.161358 -136.61017z" fill-rule="evenodd"/><path fill="#000000" fill-opacity="0.0" d="m129.75452 -722.50256l0 0c-13.666313 9.66272 -28.953758 16.986084 -45.193764 21.64978" fill-rule="evenodd"/><path stroke="#9900ff" stroke-width="24.0" stroke-linejoin="round" stroke-linecap="butt" d="m129.75452 -722.50256l0 0c-13.666313 9.66272 -28.953758 16.986084 -45.193764 21.64978" fill-rule="evenodd"/><path fill="#000000" fill-opacity="0.0" d="m-99.55986 -963.801l283.90552 0l0 126.33069l-283.90552 0z" fill-rule="evenodd"/><path fill="#351c75" d="m-46.169064 -825.4729q-7.984375 0 -14.484375 -3.96875q-6.500004 -3.984375 -10.390629 -10.671875q-3.890625 -6.703125 -3.890625 -14.921875l0 -42.265625q0 -7.953125 3.890625 -14.640625q3.90625 -6.6875 10.468754 -10.671875q6.578125 -3.984375 14.40625 -3.984375q8.09375 0 14.656248 3.921875q6.578125 3.90625 10.40625 10.546875q3.828125 6.625 3.828125 14.828125l0 6.140625q0 3.296875 -3.421875 3.296875l-14.937498 0q-3.296875 0 -3.296875 -3.296875l0 -5.078125q0 -4.03125 -2.125 -6.484375q-2.109375 -2.46875 -5.109375 -2.46875q-2.671875 0 -4.890625 2.359375q-2.21875 2.359375 -2.21875 5.53125l0 42.265625q0 3.3125 2.15625 5.609375q2.15625 2.296875 4.953125 2.296875q3.0625 0 5.140625 -2.234375q2.09375 -2.234375 2.09375 -5.671875l0 -3.765625l-6.5625 0q-3.4375 0 -3.4375 -3.4375l0 -14.921875q0 -3.4375 3.4375 -3.4375l24.921873 0q3.296875 0 3.296875 3.4375l0 22.125q0 8.21875 -3.890625 14.921875q-3.890625 6.6875 -10.390625 10.671875q-6.499998 3.96875 -14.609373 3.96875zm25.894575 -5.015625l16.59375 -91.9375q0.71875 -2.703125 3.375 -2.703125l19.328125 0q2.65625 0 3.375 2.703125l15.875002 91.671875q0.828125 3.953125 -3.25 3.953125l-14.796877 0q-2.78125 0 -3.390625 -2.953125l-1.124999 -7.453125l-13.375 0l-1.1093751 7.421875q-0.5625 2.984375 -3.40625 2.984375l-14.796876 0q-3.296875 0 -3.296875 -3.6875zm26.15625 -26.515625l6.34375 0l-5.0 -34.265625l1.9375 -5.359375l2.203125 5.296875l-5.484375 34.328125zm38.603012 30.203125q-3.296875 0 -3.296875 -3.4375l0.265625 -91.59375q0 -3.296875 3.3125 -3.296875l16.265625 0q1.9375 0 3.1718712 1.6875l9.890625 14.34375l9.890625 -14.359375q1.28125 -1.671875 3.171875 -1.671875l16.40625 0q3.296875 0 3.296875 3.296875l0.265625 91.59375q0 3.4375 -3.296875 3.4375l-15.078125 0q-3.296875 0 -3.296875 -3.4375l-0.109375 -59.140625l-11.265625 16.296875l-11.109371 -16.234375l-0.109375 59.078125q0 3.4375 -3.296875 3.4375l-15.078125 0zm71.597244 0q-3.296875 0 -3.296875 -3.4375l0.140625 -91.59375q0 -3.296875 3.296875 -3.296875l42.796875 0q3.296875 0 3.296875 3.4375l0 14.921875q0 3.3125 -3.296875 3.3125l-24.5625 0l0 15.265625l24.5625 0q3.296875 0 3.296875 3.28125l0.140625 15.0625q0 3.3125 -3.296875 3.3125l-24.703125 0l0 17.796875l24.703125 0q3.296875 0 3.296875 3.4375l0 15.203125q0 3.296875 -3.296875 3.296875l-43.078125 0z" fill-rule="nonzero"/><path fill="#000000" fill-opacity="0.0" d="m-115.08479 -864.76166l314.96063 0l0 153.63776l-314.96063 0z" fill-rule="evenodd"/><path fill="#351c75" d="m-44.794563 -721.3617q-3.453125 0 -3.453125 -3.609375l0 -76.890625l-15.296875 0q-3.609375 0 -3.609375 -3.625l0.140625 -15.671875q0 -3.453125 3.46875 -3.453125l53.203125 0q3.5937505 0 3.5937505 3.46875l0 15.671875q0 3.609375 -3.4531255 3.609375l-15.437499 0l0.140625 76.890625q0 3.609375 -3.46875 3.609375l-15.828127 0zm42.70317 0q-3.6093748 0 -3.6093748 -3.609375l0.140625 -96.171875q0 -3.46875 3.4687498 -3.46875l15.687508 0q3.468751 0 3.468751 3.46875l0.140625 96.171875q0 3.609375 -3.468751 3.609375l-15.828133 0zm29.259407 0q-3.46875 0 -3.46875 -3.609375l0.28125 -96.171875q0 -3.46875 3.46875 -3.46875l17.078123 0q2.015625 0 3.34375 1.765625l10.375 15.046875l10.390625 -15.046875q1.328125 -1.765625 3.328125 -1.765625l17.234375 0q3.453125 0 3.453125 3.46875l0.28125 96.171875q0 3.609375 -3.46875 3.609375l-15.8125 0q-3.46875 0 -3.46875 -3.609375l-0.125 -62.09375l-11.828125 17.109375l-11.640625 -17.03125l-0.125 62.015625q0 3.609375 -3.46875 3.609375l-15.828123 0zm75.18005 0q-3.46875 0 -3.46875 -3.609375l0.140625 -96.171875q0 -3.46875 3.46875 -3.46875l44.9375 0q3.46875 0 3.46875 3.609375l0 15.671875q0 3.46875 -3.46875 3.46875l-25.78125 0l0 16.03125l25.78125 0q3.46875 0 3.46875 3.453125l0.140625 15.8125q0 3.484375 -3.46875 3.484375l-25.921875 0l0 18.6875l25.921875 0q3.46875 0 3.46875 3.609375l0 15.953125q0 3.46875 -3.46875 3.46875l-45.21875 0z" fill-rule="nonzero"/><path fill="#000000" fill-opacity="0.0" d="m-99.55986 -976.09235l283.90552 0l0 126.33069l-283.90552 0z" fill-rule="evenodd"/><path fill="#9900ff" d="m-46.169064 -837.7642q-7.984375 0 -14.484375 -3.96875q-6.500004 -3.984375 -10.390629 -10.671875q-3.890625 -6.703125 -3.890625 -14.921875l0 -42.265625q0 -7.953125 3.890625 -14.640625q3.90625 -6.6875 10.468754 -10.671875q6.578125 -3.984375 14.40625 -3.984375q8.09375 0 14.656248 3.921875q6.578125 3.90625 10.40625 10.546875q3.828125 6.625 3.828125 14.828125l0 6.140625q0 3.296875 -3.421875 3.296875l-14.937498 0q-3.296875 0 -3.296875 -3.296875l0 -5.078125q0 -4.03125 -2.125 -6.484375q-2.109375 -2.46875 -5.109375 -2.46875q-2.671875 0 -4.890625 2.359375q-2.21875 2.359375 -2.21875 5.53125l0 42.265625q0 3.3125 2.15625 5.609375q2.15625 2.296875 4.953125 2.296875q3.0625 0 5.140625 -2.234375q2.09375 -2.234375 2.09375 -5.671875l0 -3.765625l-6.5625 0q-3.4375 0 -3.4375 -3.4375l0 -14.921875q0 -3.4375 3.4375 -3.4375l24.921873 0q3.296875 0 3.296875 3.4375l0 22.125q0 8.21875 -3.890625 14.921875q-3.890625 6.6875 -10.390625 10.671875q-6.499998 3.96875 -14.609373 3.96875zm25.894575 -5.015625l16.59375 -91.9375q0.71875 -2.703125 3.375 -2.703125l19.328125 0q2.65625 0 3.375 2.703125l15.875002 91.671875q0.828125 3.953125 -3.25 3.953125l-14.796877 0q-2.78125 0 -3.390625 -2.953125l-1.124999 -7.453125l-13.375 0l-1.1093751 7.421875q-0.5625 2.984375 -3.40625 2.984375l-14.796876 0q-3.296875 0 -3.296875 -3.6875zm26.15625 -26.515625l6.34375 0l-5.0 -34.265625l1.9375 -5.359375l2.203125 5.296875l-5.484375 34.328125zm38.603012 30.203125q-3.296875 0 -3.296875 -3.4375l0.265625 -91.59375q0 -3.296875 3.3125 -3.296875l16.265625 0q1.9375 0 3.1718712 1.6875l9.890625 14.34375l9.890625 -14.359375q1.28125 -1.671875 3.171875 -1.671875l16.40625 0q3.296875 0 3.296875 3.296875l0.265625 91.59375q0 3.4375 -3.296875 3.4375l-15.078125 0q-3.296875 0 -3.296875 -3.4375l-0.109375 -59.140625l-11.265625 16.296875l-11.109371 -16.234375l-0.109375 59.078125q0 3.4375 -3.296875 3.4375l-15.078125 0zm71.597244 0q-3.296875 0 -3.296875 -3.4375l0.140625 -91.59375q0 -3.296875 3.296875 -3.296875l42.796875 0q3.296875 0 3.296875 3.4375l0 14.921875q0 3.3125 -3.296875 3.3125l-24.5625 0l0 15.265625l24.5625 0q3.296875 0 3.296875 3.28125l0.140625 15.0625q0 3.3125 -3.296875 3.3125l-24.703125 0l0 17.796875l24.703125 0q3.296875 0 3.296875 3.4375l0 15.203125q0 3.296875 -3.296875 3.296875l-43.078125 0z" fill-rule="nonzero"/><path fill="#000000" fill-opacity="0.0" d="m-115.08479 -877.053l314.96063 0l0 153.63776l-314.96063 0z" fill-rule="evenodd"/><path fill="#9900ff" d="m-44.794563 -733.653q-3.453125 0 -3.453125 -3.609375l0 -76.890625l-15.296875 0q-3.609375 0 -3.609375 -3.625l0.140625 -15.671875q0 -3.453125 3.46875 -3.453125l53.203125 0q3.5937505 0 3.5937505 3.46875l0 15.671875q0 3.609375 -3.4531255 3.609375l-15.437499 0l0.140625 76.890625q0 3.609375 -3.46875 3.609375l-15.828127 0zm42.70317 0q-3.6093748 0 -3.6093748 -3.609375l0.140625 -96.171875q0 -3.46875 3.4687498 -3.46875l15.687508 0q3.468751 0 3.468751 3.46875l0.140625 96.171875q0 3.609375 -3.468751 3.609375l-15.828133 0zm29.259407 0q-3.46875 0 -3.46875 -3.609375l0.28125 -96.171875q0 -3.46875 3.46875 -3.46875l17.078123 0q2.015625 0 3.34375 1.765625l10.375 15.046875l10.390625 -15.046875q1.328125 -1.765625 3.328125 -1.765625l17.234375 0q3.453125 0 3.453125 3.46875l0.28125 96.171875q0 3.609375 -3.46875 3.609375l-15.8125 0q-3.46875 0 -3.46875 -3.609375l-0.125 -62.09375l-11.828125 17.109375l-11.640625 -17.03125l-0.125 62.015625q0 3.609375 -3.46875 3.609375l-15.828123 0zm75.18005 0q-3.46875 0 -3.46875 -3.609375l0.140625 -96.171875q0 -3.46875 3.46875 -3.46875l44.9375 0q3.46875 0 3.46875 3.609375l0 15.671875q0 3.46875 -3.46875 3.46875l-25.78125 0l0 16.03125l25.78125 0q3.46875 0 3.46875 3.453125l0.140625 15.8125q0 3.484375 -3.46875 3.484375l-25.921875 0l0 18.6875l25.921875 0q3.46875 0 3.46875 3.609375l0 15.953125q0 3.46875 -3.46875 3.46875l-45.21875 0z" fill-rule="nonzero"/><path fill="#000000" fill-opacity="0.0" d="m1355.2651 8.117991c30.810059 -53.5061 87.852295 -87.23694 150.34387 -88.90287c62.491577 -1.6659317 121.307495 28.976303 155.01843 80.76237l-150.18701 94.59774z" fill-rule="evenodd"/><path fill="#000000" fill-opacity="0.0" d="m1355.2651 8.117991c30.810059 -53.5061 87.852295 -87.23694 150.34387 -88.90287c62.491577 -1.6659317 121.307495 28.976303 155.01843 80.76237" fill-rule="evenodd"/><path stroke="#20124d" stroke-width="24.0" stroke-linejoin="round" stroke-linecap="butt" d="m1355.2651 8.117991c30.810059 -53.5061 87.852295 -87.23694 150.34387 -88.90287c62.491577 -1.6659317 121.307495 28.976303 155.01843 80.76237" fill-rule="evenodd"/><path fill="#000000" fill-opacity="0.0" d="m1665.9192 180.50633l0 0c-40.65222 71.17001 -125.84033 105.34996 -205.49951 82.45244c-79.65918 -22.897522 -132.73303 -96.81995 -128.03015 -178.32336l178.052 9.940826z" fill-rule="evenodd"/><path fill="#000000" fill-opacity="0.0" d="m1665.9192 180.50633l0 0c-40.65222 71.17001 -125.84033 105.34996 -205.49951 82.45244c-79.65918 -22.897522 -132.73303 -96.81995 -128.03015 -178.32336" fill-rule="evenodd"/><path stroke="#20124d" stroke-width="24.0" stroke-linejoin="round" stroke-linecap="butt" d="m1665.9192 180.50633l0 0c-40.65222 71.17001 -125.84033 105.34996 -205.49951 82.45244c-79.65918 -22.897522 -132.73303 -96.81995 -128.03015 -178.32336" fill-rule="evenodd"/><path fill="#20124d" d="m1493.6763 -124.59702l33.558716 0l0 43.742096l-33.558716 0z" fill-rule="evenodd"/><path stroke="#20124d" stroke-width="1.0" stroke-linejoin="round" stroke-linecap="butt" d="m1493.6763 -124.59702l33.558716 0l0 43.742096l-33.558716 0z" fill-rule="evenodd"/><path fill="#20124d" d="m1482.4921 -142.21016l55.926758 0l0 0c7.32666 0 13.265991 7.7490387 13.265991 17.307953c0 9.558922 -5.939331 17.30796 -13.265991 17.30796l-55.926758 0l0 0c-7.326538 0 -13.265991 -7.7490387 -13.265991 -17.30796c0 -9.558914 5.939453 -17.307953 13.265991 -17.307953z" fill-rule="evenodd"/><path stroke="#20124d" stroke-width="1.0" stroke-linejoin="round" stroke-linecap="butt" d="m1482.4921 -142.21016l55.926758 0l0 0c7.32666 0 13.265991 7.7490387 13.265991 17.307953c0 9.558922 -5.939331 17.30796 -13.265991 17.30796l-55.926758 0l0 0c-7.326538 0 -13.265991 -7.7490387 -13.265991 -17.30796c0 -9.558914 5.939453 -17.307953 13.265991 -17.307953z" fill-rule="evenodd"/><path fill="#000000" fill-opacity="0.0" d="m1639.6573 131.76686l0 0c-18.233032 59.468063 -77.130615 98.30336 -140.92151 92.919495c-63.791016 -5.38385 -114.869995 -53.50099 -122.21448 -115.12777c-7.3444824 -61.62678 31.072388 -119.75513 91.91846 -139.08118c60.84607 -19.326038 127.32861 5.4839306 159.07007 59.361736l-117.07507 64.73956z" fill-rule="evenodd"/><path fill="#000000" fill-opacity="0.0" d="m1639.6573 131.76686l0 0c-18.233032 59.468063 -77.130615 98.30336 -140.92151 92.919495c-63.791016 -5.38385 -114.869995 -53.50099 -122.21448 -115.12777c-7.3444824 -61.62678 31.072388 -119.75513 91.91846 -139.08118c60.84607 -19.326038 127.32861 5.4839306 159.07007 59.361736" fill-rule="evenodd"/><path stroke="#9900ff" stroke-width="24.0" stroke-linejoin="round" stroke-linecap="butt" d="m1639.6573 131.76686l0 0c-18.233032 59.468063 -77.130615 98.30336 -140.92151 92.919495c-63.791016 -5.38385 -114.869995 -53.50099 -122.21448 -115.12777c-7.3444824 -61.62678 31.072388 -119.75513 91.91846 -139.08118c60.84607 -19.326038 127.32861 5.4839306 159.07007 59.361736" fill-rule="evenodd"/><path fill="#20124d" d="m1493.6641 103.30243l229.41296 -8.725914l-229.41296 -8.725922z" fill-rule="evenodd"/><path stroke="#20124d" stroke-width="23.0" stroke-linejoin="round" stroke-linecap="butt" d="m1493.6641 103.30243l229.41296 -8.725914l-229.41296 -8.725922z" fill-rule="evenodd"/><path fill="#000000" fill-opacity="0.0" d="m53.579185 957.6863l0 0c35.215378 -63.695374 101.33085 -103.97583 173.87198 -105.93042c72.54114 -1.9545898 140.71387 34.70746 179.2822 96.414734l-173.77771 109.456726z" fill-rule="evenodd"/><path fill="#000000" fill-opacity="0.0" d="m53.579185 957.6863l0 0c35.215378 -63.695374 101.33085 -103.97583 173.87198 -105.93042c72.54114 -1.9545898 140.71387 34.70746 179.2822 96.414734" fill-rule="evenodd"/><path stroke="#20124d" stroke-width="24.0" stroke-linejoin="round" stroke-linecap="butt" d="m53.579185 957.6863l0 0c35.215378 -63.695374 101.33085 -103.97583 173.87198 -105.93042c72.54114 -1.9545898 140.71387 34.70746 179.2822 96.414734" fill-rule="evenodd"/><path fill="#000000" fill-opacity="0.0" d="m412.6721 1156.9543l0 0c-46.182373 84.20801 -144.25208 125.14368 -236.29453 98.63269c-92.04244 -26.510986 -153.57341 -113.41638 -148.25606 -209.39465l204.83533 11.436157z" fill-rule="evenodd"/><path fill="#000000" fill-opacity="0.0" d="m412.6721 1156.9543l0 0c-46.182373 84.20801 -144.25208 125.14368 -236.29453 98.63269c-92.04244 -26.510986 -153.57341 -113.41638 -148.25606 -209.39465" fill-rule="evenodd"/><path stroke="#20124d" stroke-width="24.0" stroke-linejoin="round" stroke-linecap="butt" d="m412.6721 1156.9543l0 0c-46.182373 84.20801 -144.25208 125.14368 -236.29453 98.63269c-92.04244 -26.510986 -153.57341 -113.41638 -148.25606 -209.39465" fill-rule="evenodd"/><path fill="#20124d" d="m213.67093 800.3225l38.604355 0l0 51.3526l-38.604355 0z" fill-rule="evenodd"/><path stroke="#20124d" stroke-width="1.0" stroke-linejoin="round" stroke-linecap="butt" d="m213.67093 800.3225l38.604355 0l0 51.3526l-38.604355 0z" fill-rule="evenodd"/><path fill="#20124d" d="m200.80516 779.64496l64.335495 0l0 0c8.428131 0 15.260468 9.09729 15.260468 20.319275c0 11.222046 -6.8323364 20.319275 -15.260468 20.319275l-64.335495 0l0 0c-8.428116 0 -15.260468 -9.097229 -15.260468 -20.319275c0 -11.221985 6.8323517 -20.319275 15.260468 -20.319275z" fill-rule="evenodd"/><path stroke="#20124d" stroke-width="1.0" stroke-linejoin="round" stroke-linecap="butt" d="m200.80516 779.64496l64.335495 0l0 0c8.428131 0 15.260468 9.09729 15.260468 20.319275c0 11.222046 -6.8323364 20.319275 -15.260468 20.319275l-64.335495 0l0 0c-8.428116 0 -15.260468 -9.097229 -15.260468 -20.319275c0 -11.221985 6.8323517 -20.319275 15.260468 -20.319275z" fill-rule="evenodd"/><path fill="#000000" fill-opacity="0.0" d="m381.84125 1100.4802l0 0c-20.643402 70.124146 -88.44812 116.117676 -162.0487 109.921265c-73.600586 -6.196411 -132.56424 -62.862427 -140.91916 -135.4281c-8.354904 -72.56555 36.218407 -140.8852 106.5272 -163.2793c70.30881 -22.394104 146.83412 7.35437 182.89037 71.09674l-135.34183 74.84064z" fill-rule="evenodd"/><path fill="#000000" fill-opacity="0.0" d="m381.84125 1100.4802l0 0c-20.643402 70.124146 -88.44812 116.117676 -162.0487 109.921265c-73.600586 -6.196411 -132.56424 -62.862427 -140.91916 -135.4281c-8.354904 -72.56555 36.218407 -140.8852 106.5272 -163.2793c70.30881 -22.394104 146.83412 7.35437 182.89037 71.09674" fill-rule="evenodd"/><path stroke="#9900ff" stroke-width="24.0" stroke-linejoin="round" stroke-linecap="butt" d="m381.84125 1100.4802l0 0c-20.643402 70.124146 -88.44812 116.117676 -162.0487 109.921265c-73.600586 -6.196411 -132.56424 -62.862427 -140.91916 -135.4281c-8.354904 -72.56555 36.218407 -140.8852 106.5272 -163.2793c70.30881 -22.394104 146.83412 7.35437 182.89037 71.09674" fill-rule="evenodd"/><path fill="#20124d" d="m213.65686 1067.8729l263.90552 -10.244019l-263.90552 -10.244141z" fill-rule="evenodd"/><path stroke="#20124d" stroke-width="23.0" stroke-linejoin="round" stroke-linecap="butt" d="m213.65686 1067.8729l263.90552 -10.244019l-263.90552 -10.244141z" fill-rule="evenodd"/><path fill="#000000" fill-opacity="0.0" d="m452.17392 1057.3387l921.95276 0l0 153.60632l-921.95276 0z" fill-rule="evenodd"/><path fill="#20124d" d="m495.26767 1172.542l-0.84375 -3.296875q-2.8125 4.578125 -12.796875 4.578125q-7.984375 0 -13.203125 -4.609375q-5.21875 -4.609375 -5.21875 -12.859375q0 -5.25 3.0625 -9.1875q3.0625 -3.9375 8.34375 -5.53125q6.265625 -1.796875 16.859375 -1.984375q0.796875 -4.078125 0.265625 -3.46875q0.0625 -0.234375 -2.109375 -0.015625q-1.734375 0 -4.890625 0.21875q-5.0625 0.21875 -15.859375 1.390625q-1.1875 -7.96875 -1.75 -16.59375q7.625 -1.578125 13.921875 -2.390625q6.3125 -0.8125 11.359375 -0.8125q9.203125 0 14.09375 3.25q4.890625 3.234375 6.3125305 8.375q1.4375 5.140625 1.328125 12.484375l-0.109375 15.640625l0.375 14.8125l-19.140656 0zm-7.453125 -15.109375q2.40625 0 3.65625 -0.421875l1.359375 -5.453125l0 1.359375q-6.96875 0 -7.1875 0.203125q-0.09375 0.109375 -0.25 0.734375q-0.15625 0.625 -0.15625 1.328125q0 1.5 0.453125 1.875q0.453125 0.375 2.125 0.375zm110.868256 -33.984375q2.0625 3.109375 2.0625 21.0625l0 28.03125l-22.671875 0l0 -26.21875l0 -5.75q0 -3.03125 -0.09375 -3.125q-0.203125 -0.203125 -1.984375 -0.203125l-1.203125 0.09375q-2.9375 0.1875 -4.15625 0.71875q0.03125 0.75 0.03125 6.453125l0 28.03125l-22.671875 0l0 -26.21875l0 -6.390625q0 -2.390625 -0.09375 -2.484375q-0.203125 -0.203125 -1.984375 -0.203125l-1.234375 0.09375q-2.640625 0.09375 -4.09375 0.671875l0 34.53125l-22.671875 0l0 -53.5l18.796875 0l1.234375 5.109375q1.0 -1.34375 6.0625 -3.75q5.0625 -2.421875 10.25 -2.421875q4.3125 0 8.421875 1.359375q4.109375 1.34375 5.921875 4.109375q0.890625 1.359375 -0.0625 2.0q1.3125 -3.21875 6.125 -5.34375q4.828125 -2.125 9.671875 -2.125q4.3125 0 8.421875 1.359375q4.109375 1.34375 5.921875 4.109375zm38.021362 31.859375q2.59375 0 9.84375 -0.53125q0.953125 0 5.484375 -0.390625l2.15625 14.6875q-10.15625 4.75 -23.765625 4.75q-13.140625 0 -20.375 -6.8125q-7.234375 -6.828125 -7.234375 -20.265625q0 -6.6875 1.765625 -13.0625q1.765625 -6.375 4.265625 -9.140625q2.671875 -2.796875 9.203125 -4.625q6.53125 -1.828125 12.796875 -1.828125q10.296875 0 15.71875 3.859375q5.4375 3.84375 7.0625 10.40625q1.625 6.5625 1.625 19.046875q-9.40625 0.5625 -16.40625 0.5625l-12.921875 0q0 0.375 0.921875 1.46875q0.921875 1.078125 3.09375 1.484375q2.171875 0.390625 6.765625 0.390625zm-10.921875 -20.34375q-0.421875 -0.765625 -0.25 1.34375q0.171875 2.09375 0.140625 2.78125l3.25 0q4.96875 0 5.03125 0q0 -2.328125 -0.921875 -3.6875q-0.921875 -1.359375 -3.25 -1.359375q-2.3125 0 -4.0 0.921875zm68.70929 37.578125l-23.625 0l0 -47.46875l-17.171875 0l0 -17.765625l57.96875 0l0 17.765625l-17.171875 0l0 47.46875zm29.66986 -55.140625q-4.5 0 -7.78125 -3.078125q-3.28125 -3.09375 -3.28125 -7.453125q0 -4.375 3.28125 -7.453125q3.28125 -3.09375 7.78125 -3.09375q4.515625 0 7.734375 3.09375q3.234375 3.078125 3.234375 7.453125q0 4.359375 -3.234375 7.453125q-3.21875 3.078125 -7.734375 3.078125zm-11.390625 1.640625l22.6875 0l0 53.5l-22.6875 0l0 -53.5zm108.07709 4.40625q2.0625 3.109375 2.0625 21.0625l0 28.03125l-22.671875 0l0 -26.21875l0 -5.75q0 -3.03125 -0.09375 -3.125q-0.203125 -0.203125 -1.984375 -0.203125l-1.203125 0.09375q-2.9375 0.1875 -4.15625 0.71875q0.03125 0.75 0.03125 6.453125l0 28.03125l-22.671875 0l0 -26.21875l0 -6.390625q0 -2.390625 -0.09375 -2.484375q-0.203125 -0.203125 -1.984375 -0.203125l-1.234375 0.09375q-2.640625 0.09375 -4.09375 0.671875l0 34.53125l-22.671875 0l0 -53.5l18.796875 0l1.234375 5.109375q1.0 -1.34375 6.0625 -3.75q5.0625 -2.421875 10.25 -2.421875q4.3125 0 8.421875 1.359375q4.109375 1.34375 5.921875 4.109375q0.890625 1.359375 -0.0625 2.0q1.3125 -3.21875 6.125 -5.34375q4.828125 -2.125 9.671875 -2.125q4.3125 0 8.421875 1.359375q4.109375 1.34375 5.921875 4.109375zm38.021362 31.859375q2.59375 0 9.84375 -0.53125q0.953125 0 5.484375 -0.390625l2.15625 14.6875q-10.15625 4.75 -23.765625 4.75q-13.140625 0 -20.375 -6.8125q-7.234375 -6.828125 -7.234375 -20.265625q0 -6.6875 1.765625 -13.0625q1.765625 -6.375 4.265625 -9.140625q2.671875 -2.796875 9.203125 -4.625q6.53125 -1.828125 12.796875 -1.828125q10.296875 0 15.71875 3.859375q5.4375 3.84375 7.0625 10.40625q1.625 6.5625 1.625 19.046875q-9.40625 0.5625 -16.40625 0.5625l-12.921875 0q0 0.375 0.921875 1.46875q0.921875 1.078125 3.09375 1.484375q2.171875 0.390625 6.765625 0.390625zm-10.921875 -20.34375q-0.421875 -0.765625 -0.25 1.34375q0.171875 2.09375 0.140625 2.78125l3.25 0q4.96875 0 5.03125 0q0 -2.328125 -0.921875 -3.6875q-0.921875 -1.359375 -3.25 -1.359375q-2.3125 0 -4.0 0.921875z" fill-rule="nonzero"/><path fill="#000000" fill-opacity="0.0" d="m678.29675 -642.6202l0 0c35.215393 -63.695374 101.33087 -103.97583 173.87201 -105.93042c72.54114 -1.9545898 140.7138 34.70746 179.28217 96.414734l-173.77771 109.45679z" fill-rule="evenodd"/><path fill="#000000" fill-opacity="0.0" d="m678.29675 -642.6202l0 0c35.215393 -63.695374 101.33087 -103.97583 173.87201 -105.93042c72.54114 -1.9545898 140.7138 34.70746 179.28217 96.414734" fill-rule="evenodd"/><path stroke="#9900ff" stroke-width="24.0" stroke-linejoin="round" stroke-linecap="butt" d="m678.29675 -642.6202l0 0c35.215393 -63.695374 101.33087 -103.97583 173.87201 -105.93042c72.54114 -1.9545898 140.7138 34.70746 179.28217 96.414734" fill-rule="evenodd"/><path fill="#000000" fill-opacity="0.0" d="m1037.3896 -443.35205l0 0c-46.182373 84.20795 -144.25208 125.143616 -236.2945 98.63266c-92.04248 -26.510956 -153.57343 -113.41638 -148.2561 -209.39468l204.83533 11.436157z" fill-rule="evenodd"/><path fill="#000000" fill-opacity="0.0" d="m1037.3896 -443.35205l0 0c-46.182373 84.20795 -144.25208 125.143616 -236.2945 98.63266c-92.04248 -26.510956 -153.57343 -113.41638 -148.2561 -209.39468" fill-rule="evenodd"/><path stroke="#9900ff" stroke-width="24.0" stroke-linejoin="round" stroke-linecap="butt" d="m1037.3896 -443.35205l0 0c-46.182373 84.20795 -144.25208 125.143616 -236.2945 98.63266c-92.04248 -26.510956 -153.57343 -113.41638 -148.2561 -209.39468" fill-rule="evenodd"/><path fill="#9900ff" d="m838.3885 -799.9839l38.60437 0l0 51.35254l-38.60437 0z" fill-rule="evenodd"/><path stroke="#9900ff" stroke-width="1.0" stroke-linejoin="round" stroke-linecap="butt" d="m838.3885 -799.9839l38.60437 0l0 51.35254l-38.60437 0z" fill-rule="evenodd"/><path fill="#9900ff" d="m825.5227 -820.6615l64.33551 0l0 0c8.428101 0 15.260437 9.09729 15.260437 20.319275c0 11.222046 -6.8323364 20.319275 -15.260437 20.319275l-64.33551 0l0 0c-8.428101 0 -15.260437 -9.097229 -15.260437 -20.319275c0 -11.221985 6.8323364 -20.319275 15.260437 -20.319275z" fill-rule="evenodd"/><path stroke="#9900ff" stroke-width="1.0" stroke-linejoin="round" stroke-linecap="butt" d="m825.5227 -820.6615l64.33551 0l0 0c8.428101 0 15.260437 9.09729 15.260437 20.319275c0 11.222046 -6.8323364 20.319275 -15.260437 20.319275l-64.33551 0l0 0c-8.428101 0 -15.260437 -9.097229 -15.260437 -20.319275c0 -11.221985 6.8323364 -20.319275 15.260437 -20.319275z" fill-rule="evenodd"/><path fill="#000000" fill-opacity="0.0" d="m1006.5588 -499.8263l0 0c-20.643372 70.12424 -88.44806 116.11771 -162.04865 109.921326c-73.60065 -6.196411 -132.56427 -62.862457 -140.91919 -135.42804c-8.354919 -72.56561 36.218384 -140.88525 106.52722 -163.27936c70.30878 -22.394104 146.8341 7.35437 182.89038 71.09674l-135.34186 74.84064z" fill-rule="evenodd"/><path fill="#000000" fill-opacity="0.0" d="m1006.5588 -499.8263l0 0c-20.643372 70.12424 -88.44806 116.11771 -162.04865 109.921326c-73.60065 -6.196411 -132.56427 -62.862457 -140.91919 -135.42804c-8.354919 -72.56561 36.218384 -140.88525 106.52722 -163.27936c70.30878 -22.394104 146.8341 7.35437 182.89038 71.09674" fill-rule="evenodd"/><path stroke="#20124d" stroke-width="24.0" stroke-linejoin="round" stroke-linecap="butt" d="m1006.5588 -499.8263l0 0c-20.643372 70.12424 -88.44806 116.11771 -162.04865 109.921326c-73.60065 -6.196411 -132.56427 -62.862457 -140.91919 -135.42804c-8.354919 -72.56561 36.218384 -140.88525 106.52722 -163.27936c70.30878 -22.394104 146.8341 7.35437 182.89038 71.09674" fill-rule="evenodd"/><path fill="#9900ff" d="m838.37445 -532.4335l263.90546 -10.24408l-263.90546 -10.244141z" fill-rule="evenodd"/><path stroke="#9900ff" stroke-width="23.0" stroke-linejoin="round" stroke-linecap="butt" d="m838.37445 -532.4335l263.90546 -10.24408l-263.90546 -10.244141z" fill-rule="evenodd"/><path fill="#000000" fill-opacity="0.0" d="m1076.8915 -542.96765l921.95276 0l0 153.6063l-921.95276 0z" fill-rule="evenodd"/><path fill="#9900ff" d="m1119.9852 -427.76453l-0.84375 -3.296875q-2.8125 4.578125 -12.796875 4.578125q-7.984375 0 -13.203125 -4.609375q-5.21875 -4.609375 -5.21875 -12.859375q0 -5.25 3.0625 -9.1875q3.0625 -3.9375 8.34375 -5.53125q6.265625 -1.796875 16.859375 -1.984375q0.796875 -4.078125 0.265625 -3.46875q0.0625 -0.234375 -2.109375 -0.015625q-1.734375 0 -4.890625 0.21875q-5.0625 0.21875 -15.859375 1.390625q-1.1875 -7.96875 -1.75 -16.59375q7.625 -1.578125 13.921875 -2.390625q6.3125 -0.8125 11.359375 -0.8125q9.203125 0 14.09375 3.25q4.890625 3.234375 6.3125 8.375q1.4375 5.140625 1.328125 12.484375l-0.109375 15.640625l0.375 14.8125l-19.140625 0zm-7.453125 -15.109375q2.40625 0 3.65625 -0.421875l1.359375 -5.453125l0 1.359375q-6.96875 0 -7.1875 0.203125q-0.09375 0.109375 -0.25 0.734375q-0.15625 0.625 -0.15625 1.328125q0 1.5 0.453125 1.875q0.453125 0.375 2.125 0.375zm110.868286 -33.984375q2.0625 3.109375 2.0625 21.0625l0 28.03125l-22.671875 0l0 -26.21875l0 -5.75q0 -3.03125 -0.09375 -3.125q-0.203125 -0.203125 -1.984375 -0.203125l-1.203125 0.09375q-2.9375 0.1875 -4.15625 0.71875q0.03125 0.75 0.03125 6.453125l0 28.03125l-22.671875 0l0 -26.21875l0 -6.390625q0 -2.390625 -0.09375 -2.484375q-0.203125 -0.203125 -1.984375 -0.203125l-1.234375 0.09375q-2.640625 0.09375 -4.09375 0.671875l0 34.53125l-22.671875 0l0 -53.5l18.796875 0l1.234375 5.109375q1.0 -1.34375 6.0625 -3.75q5.0625 -2.421875 10.25 -2.421875q4.3125 0 8.421875 1.359375q4.109375 1.34375 5.921875 4.109375q0.890625 1.359375 -0.0625 2.0q1.3125 -3.21875 6.125 -5.34375q4.828125 -2.125 9.671875 -2.125q4.3125 0 8.421875 1.359375q4.109375 1.34375 5.921875 4.109375zm38.021362 31.859375q2.59375 0 9.84375 -0.53125q0.953125 0 5.484375 -0.390625l2.15625 14.6875q-10.15625 4.75 -23.765625 4.75q-13.140625 0 -20.375 -6.8125q-7.234375 -6.828125 -7.234375 -20.265625q0 -6.6875 1.765625 -13.0625q1.765625 -6.375 4.265625 -9.140625q2.671875 -2.796875 9.203125 -4.625q6.53125 -1.828125 12.796875 -1.828125q10.296875 0 15.71875 3.859375q5.4375 3.84375 7.0625 10.40625q1.625 6.5625 1.625 19.046875q-9.40625 0.5625 -16.40625 0.5625l-12.921875 0q0 0.375 0.921875 1.46875q0.921875 1.078125 3.09375 1.484375q2.171875 0.390625 6.765625 0.390625zm-10.921875 -20.34375q-0.421875 -0.765625 -0.25 1.34375q0.171875 2.09375 0.140625 2.78125l3.25 0q4.96875 0 5.03125 0q0 -2.328125 -0.921875 -3.6875q-0.921875 -1.359375 -3.25 -1.359375q-2.3125 0 -4.0 0.921875zm68.70923 37.578125l-23.625 0l0 -47.46875l-17.171875 0l0 -17.765625l57.96875 0l0 17.765625l-17.171875 0l0 47.46875zm29.669922 -55.140625q-4.5 0 -7.78125 -3.078125q-3.28125 -3.09375 -3.28125 -7.453125q0 -4.375 3.28125 -7.453125q3.28125 -3.09375 7.78125 -3.09375q4.515625 0 7.734375 3.09375q3.234375 3.078125 3.234375 7.453125q0 4.359375 -3.234375 7.453125q-3.21875 3.078125 -7.734375 3.078125zm-11.390625 1.640625l22.6875 0l0 53.5l-22.6875 0l0 -53.5zm108.07703 4.40625q2.0625 3.109375 2.0625 21.0625l0 28.03125l-22.671875 0l0 -26.21875l0 -5.75q0 -3.03125 -0.09375 -3.125q-0.203125 -0.203125 -1.984375 -0.203125l-1.203125 0.09375q-2.9375 0.1875 -4.15625 0.71875q0.03125 0.75 0.03125 6.453125l0 28.03125l-22.671875 0l0 -26.21875l0 -6.390625q0 -2.390625 -0.09375 -2.484375q-0.203125 -0.203125 -1.984375 -0.203125l-1.234375 0.09375q-2.640625 0.09375 -4.09375 0.671875l0 34.53125l-22.671875 0l0 -53.5l18.796875 0l1.234375 5.109375q1.0 -1.34375 6.0625 -3.75q5.0625 -2.421875 10.25 -2.421875q4.3125 0 8.421875 1.359375q4.109375 1.34375 5.921875 4.109375q0.890625 1.359375 -0.0625 2.0q1.3125 -3.21875 6.125 -5.34375q4.828125 -2.125 9.671875 -2.125q4.3125 0 8.421875 1.359375q4.109375 1.34375 5.921875 4.109375zm38.021362 31.859375q2.59375 0 9.84375 -0.53125q0.953125 0 5.484375 -0.390625l2.15625 14.6875q-10.15625 4.75 -23.765625 4.75q-13.140625 0 -20.375 -6.8125q-7.234375 -6.828125 -7.234375 -20.265625q0 -6.6875 1.765625 -13.0625q1.765625 -6.375 4.265625 -9.140625q2.671875 -2.796875 9.203125 -4.625q6.53125 -1.828125 12.796875 -1.828125q10.296875 0 15.71875 3.859375q5.4375 3.84375 7.0625 10.40625q1.625 6.5625 1.625 19.046875q-9.40625 0.5625 -16.40625 0.5625l-12.921875 0q0 0.375 0.921875 1.46875q0.921875 1.078125 3.09375 1.484375q2.171875 0.390625 6.765625 0.390625zm-10.921875 -20.34375q-0.421875 -0.765625 -0.25 1.34375q0.171875 2.09375 0.140625 2.78125l3.25 0q4.96875 0 5.03125 0q0 -2.328125 -0.921875 -3.6875q-0.921875 -1.359375 -3.25 -1.359375q-2.3125 0 -4.0 0.921875z" fill-rule="nonzero"/><path fill="#000000" fill-opacity="0.0" d="m1126.5798 1144.121l0 0c35.215332 -63.695312 101.33081 -103.97571 173.87195 -105.9303c72.54114 -1.9545898 140.71387 34.707397 179.28223 96.41467l-173.77771 109.45679z" fill-rule="evenodd"/><path fill="#000000" fill-opacity="0.0" d="m1126.5798 1144.121l0 0c35.215332 -63.695312 101.33081 -103.97571 173.87195 -105.9303c72.54114 -1.9545898 140.71387 34.707397 179.28223 96.41467" fill-rule="evenodd"/><path stroke="#20124d" stroke-width="24.0" stroke-linejoin="round" stroke-linecap="butt" d="m1126.5798 1144.121l0 0c35.215332 -63.695312 101.33081 -103.97571 173.87195 -105.9303c72.54114 -1.9545898 140.71387 34.707397 179.28223 96.41467" fill-rule="evenodd"/><path fill="#000000" fill-opacity="0.0" d="m1485.6727 1343.3892l0 0c-46.182373 84.20801 -144.25208 125.14368 -236.29456 98.63269c-92.04248 -26.510986 -153.57336 -113.41638 -148.2561 -209.39465l204.83533 11.436157z" fill-rule="evenodd"/><path fill="#000000" fill-opacity="0.0" d="m1485.6727 1343.3892l0 0c-46.182373 84.20801 -144.25208 125.14368 -236.29456 98.63269c-92.04248 -26.510986 -153.57336 -113.41638 -148.2561 -209.39465" fill-rule="evenodd"/><path stroke="#20124d" stroke-width="24.0" stroke-linejoin="round" stroke-linecap="butt" d="m1485.6727 1343.3892l0 0c-46.182373 84.20801 -144.25208 125.14368 -236.29456 98.63269c-92.04248 -26.510986 -153.57336 -113.41638 -148.2561 -209.39465" fill-rule="evenodd"/><path fill="#20124d" d="m1286.6715 986.7573l38.60437 0l0 51.35254l-38.60437 0z" fill-rule="evenodd"/><path stroke="#20124d" stroke-width="1.0" stroke-linejoin="round" stroke-linecap="butt" d="m1286.6715 986.7573l38.60437 0l0 51.35254l-38.60437 0z" fill-rule="evenodd"/><path fill="#20124d" d="m1273.8058 966.0798l64.33545 0l0 0c8.428101 0 15.260498 9.097229 15.260498 20.319275c0 11.221985 -6.8323975 20.319275 -15.260498 20.319275l-64.33545 0l0 0c-8.428101 0 -15.260498 -9.09729 -15.260498 -20.319275c0 -11.222046 6.8323975 -20.319275 15.260498 -20.319275z" fill-rule="evenodd"/><path stroke="#20124d" stroke-width="1.0" stroke-linejoin="round" stroke-linecap="butt" d="m1273.8058 966.0798l64.33545 0l0 0c8.428101 0 15.260498 9.097229 15.260498 20.319275c0 11.221985 -6.8323975 20.319275 -15.260498 20.319275l-64.33545 0l0 0c-8.428101 0 -15.260498 -9.09729 -15.260498 -20.319275c0 -11.222046 6.8323975 -20.319275 15.260498 -20.319275z" fill-rule="evenodd"/><path fill="#000000" fill-opacity="0.0" d="m1454.8418 1286.9149l0 0c-20.64331 70.12427 -88.448 116.117676 -162.04858 109.92139c-73.600586 -6.196411 -132.56433 -62.86255 -140.91919 -135.4281c-8.35498 -72.56555 36.218384 -140.88525 106.52722 -163.2793c70.308716 -22.394165 146.8341 7.354248 182.89038 71.09668l-135.34192 74.8407z" fill-rule="evenodd"/><path fill="#000000" fill-opacity="0.0" d="m1454.8418 1286.9149l0 0c-20.64331 70.12427 -88.448 116.117676 -162.04858 109.92139c-73.600586 -6.196411 -132.56433 -62.86255 -140.91919 -135.4281c-8.35498 -72.56555 36.218384 -140.88525 106.52722 -163.2793c70.308716 -22.394165 146.8341 7.354248 182.89038 71.09668" fill-rule="evenodd"/><path stroke="#9900ff" stroke-width="24.0" stroke-linejoin="round" stroke-linecap="butt" d="m1454.8418 1286.9149l0 0c-20.64331 70.12427 -88.448 116.117676 -162.04858 109.92139c-73.600586 -6.196411 -132.56433 -62.86255 -140.91919 -135.4281c-8.35498 -72.56555 36.218384 -140.88525 106.52722 -163.2793c70.308716 -22.394165 146.8341 7.354248 182.89038 71.09668" fill-rule="evenodd"/><path fill="#20124d" d="m1286.6575 1254.3077l263.90552 -10.244141l-263.90552 -10.244019z" fill-rule="evenodd"/><path stroke="#20124d" stroke-width="23.0" stroke-linejoin="round" stroke-linecap="butt" d="m1286.6575 1254.3077l263.90552 -10.244141l-263.90552 -10.244019z" fill-rule="evenodd"/><path fill="#f3f3f3" d="m1170.9689 920.7164l-357.07092 0l0 141.21259l141.21259 141.21265l215.85834 0z" fill-rule="evenodd"/><path fill="#c2c2c2" d="m955.11053 1203.1416l-28.242493 -112.97009l-112.97009 -28.242554z" fill-rule="evenodd"/><path fill="#000000" fill-opacity="0.0" d="m955.11053 1203.1416l-28.242493 -112.97009l-112.97009 -28.242554l141.21259 141.21265l215.85834 0l0 -282.42523l-357.07092 0l0 141.21259" fill-rule="evenodd"/><path stroke="#20124d" stroke-width="20.0" stroke-linejoin="round" stroke-linecap="butt" d="m955.11053 1203.1416l-28.242493 -112.97009l-112.97009 -28.242554l141.21259 141.21265l215.85834 0l0 -282.42523l-357.07092 0l0 141.21259" fill-rule="evenodd"/><path fill="#351c75" d="m813.898 897.5302l357.07086 0l0 78.51965l-357.07086 0z" fill-rule="evenodd"/><path stroke="#20124d" stroke-width="20.0" stroke-linejoin="round" stroke-linecap="butt" d="m813.898 897.5302l357.07086 0l0 78.51965l-357.07086 0z" fill-rule="evenodd"/><path fill="#f3f3f3" d="m1317.0709 563.1862l-357.07092 0l0 141.21259l141.21265 141.21259l215.85828 0z" fill-rule="evenodd"/><path fill="#c2c2c2" d="m1101.2126 845.6114l-28.242554 -112.97009l-112.97009 -28.242493z" fill-rule="evenodd"/><path fill="#000000" fill-opacity="0.0" d="m1101.2126 845.6114l-28.242554 -112.97009l-112.97009 -28.242493l141.21265 141.21259l215.85828 0l0 -282.42517l-357.07092 0l0 141.21259" fill-rule="evenodd"/><path stroke="#073763" stroke-width="20.0" stroke-linejoin="round" stroke-linecap="butt" d="m1101.2126 845.6114l-28.242554 -112.97009l-112.97009 -28.242493l141.21265 141.21259l215.85828 0l0 -282.42517l-357.07092 0l0 141.21259" fill-rule="evenodd"/><path fill="#0b5394" d="m960.0 540.0l357.07092 0l0 78.519714l-357.07092 0z" fill-rule="evenodd"/><path stroke="#073763" stroke-width="20.0" stroke-linejoin="round" stroke-linecap="butt" d="m960.0 540.0l357.07092 0l0 78.519714l-357.07092 0z" fill-rule="evenodd"/></g></svg>