<svg version="1.1" viewBox="0.0 0.0 500.0 500.0" fill="none" stroke="none" stroke-linecap="square" stroke-miterlimit="10" xmlns:xlink="http://www.w3.org/1999/xlink" xmlns="http://www.w3.org/2000/svg"><clipPath id="g1248b403d48_0_0.0"><path d="m0 0l500.0 0l0 500.0l-500.0 0l0 -500.0z" clip-rule="nonzero"/></clipPath><g clip-path="url(#g1248b403d48_0_0.0)"><path fill="#000000" fill-opacity="0.0" d="m0 0l500.0 0l0 500.0l-500.0 0z" fill-rule="evenodd"/><path fill="#000000" fill-opacity="0.0" d="m78.505714 188.24857l0 0c34.01484 -61.638573 97.91743 -100.62391 168.03549 -102.51413c70.11804 -1.8902206 136.00906 33.596176 173.26419 93.31348l-167.94817 105.78491z" fill-rule="evenodd"/><path fill="#000000" fill-opacity="0.0" d="m78.505714 188.24857l0 0c34.01484 -61.638573 97.91743 -100.62391 168.03549 -102.51413c70.11804 -1.8902206 136.00906 33.596176 173.26419 93.31348" fill-rule="evenodd"/><path stroke="#20124d" stroke-width="24.0" stroke-linejoin="round" stroke-linecap="butt" d="m78.505714 188.24857l0 0c34.01484 -61.638573 97.91743 -100.62391 168.03549 -102.51413c70.11804 -1.8902206 136.00906 33.596176 173.26419 93.31348" fill-rule="evenodd"/><path fill="#000000" fill-opacity="0.0" d="m425.53683 380.82336c-44.595642 81.46631 -139.3537 121.09088 -228.30298 95.468506c-88.94926 -25.622375 -148.42151 -109.67398 -143.28795 -202.50757l197.91246 11.049683z" fill-rule="evenodd"/><path fill="#000000" fill-opacity="0.0" d="m425.53683 380.82336c-44.595642 81.46631 -139.3537 121.09088 -228.30298 95.468506c-88.94926 -25.622375 -148.42151 -109.67398 -143.28795 -202.50757" fill-rule="evenodd"/><path stroke="#20124d" stroke-width="24.0" stroke-linejoin="round" stroke-linecap="butt" d="m425.53683 380.82336c-44.595642 81.46631 -139.3537 121.09088 -228.30298 95.468506c-88.94926 -25.622375 -148.42151 -109.67398 -143.28795 -202.50757" fill-rule="evenodd"/><path fill="#20124d" d="m233.22433 35.99333l37.29953 0l0 49.663044l-37.29953 0z" fill-rule="evenodd"/><path stroke="#20124d" stroke-width="1.0" stroke-linejoin="round" stroke-linecap="butt" d="m233.22433 35.99333l37.29953 0l0 49.663044l-37.29953 0z" fill-rule="evenodd"/><path fill="#20124d" d="m220.79343 15.996067l62.16095 0l0 0c8.1432495 0 14.744659 8.797949 14.744659 19.650772c0 10.852818 -6.60141 19.650768 -14.744659 19.650768l-62.16095 0l0 0c-8.1432495 0 -14.744659 -8.797951 -14.744659 -19.650768c0 -10.852823 6.60141 -19.650772 14.744659 -19.650772z" fill-rule="evenodd"/><path stroke="#20124d" stroke-width="1.0" stroke-linejoin="round" stroke-linecap="butt" d="m220.79343 15.996067l62.16095 0l0 0c8.1432495 0 14.744659 8.797949 14.744659 19.650772c0 10.852818 -6.60141 19.650768 -14.744659 19.650768l-62.16095 0l0 0c-8.1432495 0 -14.744659 -8.797951 -14.744659 -19.650768c0 -10.852823 6.60141 -19.650772 14.744659 -19.650772z" fill-rule="evenodd"/><path fill="#000000" fill-opacity="0.0" d="m395.72095 326.2402l0 0c-19.931091 67.83072 -85.44626 112.328674 -156.56876 106.34158c-71.12248 -5.9871216 -128.10214 -60.79669 -136.17049 -130.9844c-8.068329 -70.1877 35.015182 -136.26299 102.961334 -157.90729c67.94618 -21.644295 141.88689 7.1528473 176.70415 68.81967l-130.79625 72.32703z" fill-rule="evenodd"/><path fill="#000000" fill-opacity="0.0" d="m395.72095 326.2402l0 0c-19.931091 67.83072 -85.44626 112.328674 -156.56876 106.34158c-71.12248 -5.9871216 -128.10214 -60.79669 -136.17049 -130.9844c-8.068329 -70.1877 35.015182 -136.26299 102.961334 -157.90729c67.94618 -21.644295 141.88689 7.1528473 176.70415 68.81967" fill-rule="evenodd"/><path stroke="#9900ff" stroke-width="24.0" stroke-linejoin="round" stroke-linecap="butt" d="m395.72095 326.2402l0 0c-19.931091 67.83072 -85.44626 112.328674 -156.56876 106.34158c-71.12248 -5.9871216 -128.10214 -60.79669 -136.17049 -130.9844c-8.068329 -70.1877 35.015182 -136.26299 102.961334 -157.90729c67.94618 -21.644295 141.88689 7.1528473 176.70415 68.81967" fill-rule="evenodd"/><path fill="#20124d" d="m233.21074 294.74136l254.98552 -9.907074l-254.98552 -9.907074z" fill-rule="evenodd"/><path stroke="#20124d" stroke-width="23.0" stroke-linejoin="round" stroke-linecap="butt" d="m233.21074 294.74136l254.98552 -9.907074l-254.98552 -9.907074z" fill-rule="evenodd"/></g></svg>